<?xml version="1.0" encoding="UTF-8"?>
<svg id="Camada_1" data-name="Camada 1" xmlns="http://www.w3.org/2000/svg" version="1.1" viewBox="0 0 595.28 841.89">
  <defs>
    <style>
      .cls-1 {
        fill: #cd9c35;
      }

      .cls-1, .cls-2, .cls-3, .cls-4, .cls-5, .cls-6, .cls-7, .cls-8, .cls-9, .cls-10, .cls-11, .cls-12, .cls-13, .cls-14, .cls-15, .cls-16 {
        stroke-width: 0px;
      }

      .cls-2 {
        fill: #e8c75d;
      }

      .cls-3 {
        fill: #ddb33b;
      }

      .cls-4 {
        fill: #ac6c1f;
      }

      .cls-5 {
        fill: #ecce66;
      }

      .cls-6 {
        fill: #f0d471;
      }

      .cls-7 {
        fill: #c59135;
      }

      .cls-8 {
        fill: #d3a537;
      }

      .cls-9 {
        fill: #d9af49;
      }

      .cls-10 {
        fill: #deb540;
      }

      .cls-11 {
        fill: #e1bd57;
      }

      .cls-12 {
        fill: #e6c354;
      }

      .cls-13 {
        fill: #bc822a;
      }

      .cls-14 {
        fill: #e1ba47;
      }

      .cls-15 {
        fill: #b47724;
      }

      .cls-16 {
        fill: #fefefe;
      }
    </style>
  </defs>
  <path class="cls-3" d="M308.03,250.92c-.63-4.69-.59-9.4-.54-14.11.58-.41.53-.8-.05-1.16-.14-1.8-.61-3.59-.31-5.41.28-.38.28-.76-.23-.84-.47-.08-.57.39-.68.76-8.76,14.25-20.4,24.62-37.4,27.75-2.34.43-4.08-.27-5.23-2.64-8.95-18.48-17.97-36.92-26.98-55.37-.62-1.27-1.2-2.54-.03-3.8,1.17-1.26,2.6-1.19,4.05-.6,3.44,1.4,6.66,3.25,9.95,4.97,9.61,5.03,19.34,9.84,28.96,14.86,2.31,1.21,3.3.79,4.3-1.62,6.32-15.26,12.78-30.46,19.22-45.68.63-1.49,1.07-3.51,3.3-3.03,2.17.48,2.15,2.42,2.22,4.25,1,27.17,2.03,54.34,3.05,81.51.01.29.09.57.19,1.19.76-1.57.82-2.98.87-4.37.65-17.89,1.28-35.78,1.94-53.66.32-8.7.74-17.39,1.08-26.09.06-1.58.37-3.04,2.12-3.42,1.94-.42,2.47,1.2,3.03,2.54,6.3,14.85,12.58,29.7,18.85,44.56,1.66,3.94,1.68,4.01,5.43,2.08,11.13-5.71,22.23-11.47,33.36-17.18,1.56-.8,3.2-1.45,4.81-2.15,1.08-.47,2.14-.47,2.95.48.8.94,1.18,2.03.57,3.25-.26.53-.5,1.06-.76,1.59-8.36,17.13-16.71,34.27-25.08,51.4-2.8,5.72-2.8,5.68-8.87,4.28-15.53-3.58-26.07-13.51-34.11-26.65-.17-.31-.34-.88-.52-.88-.71-.02-.56.6-.58,1.06-.02.52-.03,1.04-.05,1.56-.76.56-.78,1.14-.06,1.75-.02,4.51.19,9.03-.53,13.52-.75.56-.78,1.14-.07,1.75.02,4.51.14,9.03-.52,13.52-.75.56-.78,1.14-.07,1.75.02,4.52.14,9.03-.53,13.52-.75.56-.77,1.14-.06,1.75-.04,3.86.27,7.74-.46,11.57.29,1.05-1.04,2.04-.11,3.11.27,8.2-.99,16.4-.14,24.61.14,1.37-.31,2.71-1.93,2.73-1.43.02-1.78-1.19-1.96-2.46-.94-6.51-.38-13.07-.57-19.6.71-.61.68-1.2-.07-1.75-.29-1.79-.61-3.57-.33-5.4.41-.35.37-.67-.06-.97-.05-2.39-.09-4.77-.14-7.16.71-.61.68-1.2-.07-1.75-.71-4.49-.51-9.01-.52-13.52.72-.61.69-1.2-.07-1.75-.66-4.49-.54-9-.52-13.52.58-.41.53-.79-.05-1.16ZM360.92,242.14c1.32-1.79,2.28-3.75,2.89-5.89,1.43-1.47,1.83-3.41,2.39-5.28,1.5-2.19,2.73-4.51,3.5-7.06.66-1.14,1.71-2.08,1.75-3.53.98-1.96,1.96-3.91,2.95-5.86,2.37-4.73,4.74-9.47,7.11-14.2-.2-.16-.4-.33-.6-.49-7.25,3.74-14.5,7.47-21.75,11.21-3.15,1.74-6.29,3.49-9.44,5.23-1.86.36-3.36,1.52-5.05,2.27-.54.24-1.07.53-1.21,1.17-.27,1.31,2.45,5.43,3.74,6.07,1.93.95,4.36,1.15,5.46,3.44-.59.86-1.6.59-2.41.86-1.88.63-2.29,1.63-1.12,3.24.43,1.44.57,3,1.75,4.13.41,1.44.6,2.98,1.73,4.12.42,2.83,2.01,5.22,2.95,7.84.2.55.36,1.26.98,1.31.85.08,1.01-.81,1.27-1.39,1.07-2.38,2.07-4.79,3.1-7.18ZM258.07,234.49c.55,1.67.69,3.53,2.28,4.69,1.29,4.31,3.73,8.1,5.58,12.15.72,1.58,1.4,1.38,2-.06,1.74-4.2,3.98-8.2,4.97-12.7,1.49-.73.82-2.48,1.66-3.52.79-.82.91-1.91,1.17-2.94,1.26-1.57.38-2.44-1.03-3.15-1.02-.51-2.32-.49-3.07-1.54.85-.98,2-.5,3.02-.58,3.14-.24,5.43-2.1,5.57-5.11.1-2.27-2.44-2.03-3.72-3.02-.68-.53-1.56-.8-2.48-.71-.53-1.07-1.63-1.33-2.57-1.83-6.71-3.56-13.42-7.12-20.16-10.65-3.03-1.59-6.11-3.08-9.16-4.61,1.22,4.02,2.83,7.44,4.62,10.77,1.37,2.55,2.11,5.47,4.27,7.57-.11,1.98,1.6,3.33,1.8,5.21,1,1.76,1.55,3.75,2.92,5.31.44,1.73,1.2,3.31,2.33,4.7ZM295.15,238.59c2.97-2.47,2.73-2.6-.39-4.42-4.09-2.39-8.2-.62-12.28-.9-2.27-.16-3.54.69-3.82,2.96-1.21,1.31-1.55,2.97-1.84,4.64-2.04,3.02-3.14,6.48-4.57,9.78-.31.71-1.14,1.61-.22,2.39.67.56,1.48.07,2.22-.16,6.15-1.92,11.58-5.04,16.17-9.58,1.87-1.27,3.36-2.93,4.74-4.7ZM331.52,229.18c.12-1.46-.12-2.81-1.68-3.37-1.5-.55-2.36.6-3.2,1.53-.78.86-1.42,1.85-2.17,2.74-.84,1-.33,1.57.58,2.05.46,1.59,1.36,2.83,2.9,3.55.75,1.95,2.06,3.34,4.01,4.12.06.19.06.42.18.55,5.09,5.54,11.44,9,18.6,10.99,1.73.48,1.37-.82.97-1.78-1.32-3.13-2.34-6.41-4.28-9.26-.02-1.78-1.18-3.11-1.82-4.65-.59-1.57-1.17-3.13-1.76-4.7-.69-3.18-2.8-4.56-5.91-4.72-.47-.02-.93-.26-1.4-.37-3.25-.73-4.06.1-3.26,3.32-.59,0-1.18,0-1.76,0ZM291.56,207.46c-1.5.2-1.65,1.57-2.08,2.57-1.89,4.38-3.72,8.79-5.47,13.24-.49,1.25-2.03,2.87-.59,3.86,1.13.77,2.63-.74,3.83-1.55.32-.21.59-.52.84-.82,1.77-2.08,3.26-1.55,4.72.4,1.17,1.55,2.41,3.06,3.7,4.51.68.77,1.36.82,1.54-.45,3.15,1.19,5.21.02,6.43-2.97.27-1.67,2.5-2.17,2.35-4.17-.77-10.22-.84-20.46-1.29-30.69-.23-5.17-.3-10.34-.47-15.5-.01-.38,0-.79-.79-.81-2.45,6.05-4.94,12.17-7.42,18.3-.46.93-1.06,1.82-1.35,2.8-1.14,3.82-3.95,7.07-3.95,11.29ZM320.97,226.82c2.08,2.49,2.72,2.44,4.53-.06,1.7-2.35,2.26-5.14,3.24-7.77.93-2.48,1.88-2.71,3.73-.87,1.45,1.45,2.93,2.85,4.72,3.88.64.37,1.38,1.03,2.13.43.82-.65.14-1.48-.13-2.13-3.91-9.19-7.85-18.36-11.79-27.53-2.57-6.27-5.14-12.55-7.7-18.82-.06,5.96-1.27,11.66-1.14,17.42.16,7.31-.31,14.64-.78,21.91-.33,5.11-.24,9.56,3.2,13.53Z"/>
  <path class="cls-3" d="M320.96,468.09c1.68-.42,3,.62,4.41,1.15,6.53,2.42,13.21,4.39,20.17,4.72,13.98.64,22.45-5.18,25.96-20.31,1.43-6.14,1.57-12.4,1.3-18.65-.11-2.51,1.01-4.1,3.17-4.61,8.55-2.01,13.56-8.05,17.74-15.12,3.04-5.15,4.88-10.83,7.12-16.33,2.86-.17,3.63,1.52,3.8,4,.13,1.79.88,3.38,2.65,4.23.47,2.28,2.3,2.15,4.02,2.39,1.62.23,3.34.69,4.05,2.33.69,1.57-.45,2.68-1.51,3.74-.37.37-.47,1.01-.7,1.52-.7.8-1.37,1.62-2.1,2.39-.66.69-1.03,1.41-.52,2.34,1.58,2.87,2.24,6.19,4.38,8.78,1.73,4.65,4.16,8.91,7.05,12.92,1.64,3.14,3.4,6.2,5.83,8.81,1.14,2.27,2.29,4.78,4.85,5.51,2.04.59,3.36,1.8,4.75,3.15,2.55,2.46,4.3,5.5,6.27,8.38,1.17,2.35,2.35,4.7,3.52,7.05.6,1.95,1.2,3.9,1.8,5.85-.23,1.25.97,2.46.09,3.72-1.55-.79-1.39-2.48-1.85-3.78-2.54-7.18-5.9-13.85-11.45-19.22-1.11-1.07-2.14-2.27-3.95-2.22-1.39.04-1.91-1.25-2.58-2.17-11.84-16.38-21.32-33.9-25.58-53.88-.03-.16-.21-.29-.46-.62-.94.65-1.08,1.71-1.45,2.63-3.02,7.48-6.58,14.63-12.49,20.34-3.01,2.91-6.43,5.19-10.47,6.23-1.91.49-2.19,1.44-2.15,3.1.19,8.06-.44,16.02-3.24,23.68-2.64,7.23-7.1,12.83-14.47,15.61-2.37.89-1.7,2.57-1.54,4.08,1.12,11.01-3.44,19.34-12.06,25.76-1.24.92-2.49,1.92-4.27,1.49-.83-.2-1.48.4-2.14.81-8.63,5.41-16.81,11.43-24.53,18.09-1.35,1.16-1.5,1.79-.2,3.37,9.83,11.94,18.37,24.61,21.08,40.3,1.42,8.19,1.21,16.35-.45,24.48-.13.66-.28,1.44-.71,1.9-6.28,6.7-9.36,15.24-13.16,23.3-7.77,16.49-13.29,33.8-17.68,51.48-.28,1.12-.07,2.61-1.59,3.21-2.56.99-4.05.06-4.25-2.84-1.41-20.19-5.04-39.91-12.12-58.93-1.77-4.77-3.35-9.67-5.95-14.02-3.54-5.93-3.36-12-2.17-18.39,3.18-17.12,11.21-31.8,22.67-44.67,12.08-13.56,26.49-24.27,42.14-33.35,6.96-4.04,12.4-14.7,11.4-22.72-.23-1.86-1.3-1.6-2.45-1.53-10.2.64-19.74-2.11-29.08-5.78-.53-.21-1-.58-1.5-.87-.15-1.01.17-1.92.58-2.82ZM317.49,539.86c-1.64-3.12-4.24-5.52-6.36-8.28-.51-.67-1.26-1.53-2.14-.55-1.93,2.14-4.56,3.66-5.73,6.46-1.14.81-2.13,1.76-2.85,2.96-1.24,1.19-2.46,2.39-2.95,4.11-1.4.76-2.1,1.99-2.34,3.53-2.4,2.5-2.28,3.18.7,4.44,5.06,2.14,10.29,2.94,15.75,2.02-.09,1.04-.82,1.07-1.64,1.19-3.27.46-3.38.66-2.28,3.81.25.71.64,1.36.96,2.04.34,3.81,2.02,7.17,3.55,10.58,1.49,4.81,4.22,8.96,7.34,12.81,1.08,1.33,1.7,2.55,1.43,4.2-1.11.13-2.44-.39-3.23.82-2.06,3.13-4.68,5.96-5.54,9.77-1.5,1.97-2.09,4.34-2.87,6.61-1.84,5.36-1.8,5.37,3.64,5.14.58-.03,1.23.15,1.74-.04,2.42-.9,5.6,0,7.18-2.91,1.48-2.73,2.94-5.48,4.4-8.22.72-1.25,1.68-2.42,2.1-3.77.67-2.14,3.33-3.09,3.18-5.63,1.77-9.35,1.15-18.55-1.75-27.6.07-3.13-1.67-5.61-2.95-8.26-.87-.79.03-2.66-1.75-2.9-.21-1.07-.38-2.16-1.76-2.35.26-1.73-.65-2.96-1.75-4.11-.08-1.15-.82-1.82-1.74-2.36-.81-1.15-.97-2.74-2.34-3.53ZM306.86,644.42c1.18-1.71,1.46-3.76,2.15-5.65.49-1.32-.18-2.37-1.53-1.89-2.88,1.02-5.92.81-8.81,1.58-1.02.27-2.02.7-1.63,1.94.66,2.1.45,4.41,1.58,6.39.63,6.06,1.26,12.12,1.89,18.18.19.02.39.04.58.06,1.92-6.87,3.85-13.73,5.77-20.6ZM298.63,602.71c-.54-3.83-1.27-7.62-2.9-11.17.03-1.32-.41-2.12-1.9-2.41-2.13-.41-2.02-1.81-.92-3.22.71-.91,1.63-1.67,2.44-2.5,4.33-4.43,6.31-9.86,6.83-15.92,1.1-1.27.41-2.8.59-4.2.7-5.46.69-5.51-4.38-6.54-2.69-.55-5.81-2.87-7.88-1.45-2.12,1.45-2.85,4.91-4.2,7.48-3.41,7.89-5.42,16.15-6.38,24.68-.25,2.21-.2,4.28,1.66,5.87,1.58,3.71,3.15,7.42,4.73,11.14.79,2.09,1.6,4.16,2.36,6.26,2.23,6.21,2.69,6.39,9.11,4.4,1.26-.39,1.88-1.05,1.96-2.17.22-3.47.06-6.92-1.1-10.24ZM303.93,609.51c2.13-5.5,4.04-11.03,6.99-16.1,1.41-2.42,4.22-4.69,4.24-7.06.02-2.41-2.74-4.77-4.02-7.28-1.68-3.29-3.11-6.72-4.92-10.69-1.06,5.37-2.26,10.09-5.23,13.88-2.24,2.85-2.78,5.15-1.35,8.7,2.36,5.85,3.26,12.18,4.3,18.55Z"/>
  <path class="cls-3" d="M369.84,590.01c-.63,3.31-1.06,6.07-1.69,8.79-3.4,14.61-10.7,27.2-20.14,38.68-1.06,1.28-2.08,2.6-3.05,3.94-.64.89-1.38,1.45-2.47.92-1.06-.52-1.13-1.54-.9-2.54.15-.66.5-1.27.74-1.91,8.21-21.35,13.35-43.34,13.17-66.33-.09-11.37-1.58-22.61-4.98-33.53-.26-.83-.54-1.67-.97-2.43-.56-1.01-1.06-1.96.09-2.85,1.03-.79,1.98-.34,2.97.26,5.4,3.26,10.04,7.4,14.27,12.05,10.89,11.98,17.04,26.31,20.77,41.84.19.79-.19,2.06.89,2.25.96.17,1.32-.98,1.81-1.68,14.3-20.44,21.93-42.95,20.42-68.05-.79-13.21-2.99-26.22-9.36-38.12-.73-1.36-.62-2.51.8-3.21,1.4-.69,2.51-.07,3.16,1.23,8.76,17.41,17.21,34.91,19.37,54.67,2.13,19.5-.85,38.19-8.46,56.2-5.6,13.26-13.19,25.3-22.12,36.53-1.95,2.46-2.72,2.37-4.58-.25-1.67-2.36-2.28-5.17-3.36-7.77-3.61-8.68-7.27-17.32-12.99-24.89-.92-1.22-2.03-2.28-3.4-3.8ZM363.24,546.93c-1.54-1.62-2.95-3.39-4.67-4.8-.91-.75-2.05-2.43-3.01-1.85-1.27.77.18,2.22.47,3.34.23.9-.21,2.02.76,2.72.2,1.99.31,4.01,1.15,5.88,0,1.97-.09,3.96.6,5.86.77,9.2.99,18.4.04,27.6-.03,3.56-.53,7.07-1.19,10.56-.5,2.94-.89,5.91-1.53,8.81-.29,1.31.19,1.88,1.24,2.13,2,.47,5.27-1.31,5.84-3.41.73-2.69,1.85-5.3,2.05-8.12-.03-3.32,2-6.64.02-9.97.53-2.86,2.72-2.33,4.67-2.29.49,3.2,3.36,4.42,5.31,6.41l3.53,4.69c1.49,1.8,1.55,5.39,5.44,4.11,6.92-2.28,14.19-2.86,21.3-4.19,3.38-.63,7.15-1,7.32-5.79,1.5-2.81,2.69-5.74,3.52-8.81,2.86-8.79,4.88-17.74,5.29-27.01,0-2.55,0-5.09,0-7.64-.3-2.88,1.22-6.27-2.35-8.21,1.47-.92,2.01-2.24,1.76-3.94-.4-2.84-.43-5.75-1.73-8.4-.84-7.23-3.21-13.99-6.3-20.55,1.27,8.01,1.69,16.05,2.13,24.09-1.22,3.23-.04,6.73-1.15,9.97-.2,2.34-.4,4.68-.6,7.02-.58,1.97-1.15,3.93-1.73,5.9-.07.48-.08.98-.21,1.44-2.89,10.47-7.32,20.29-12.74,29.67-1.76,2.74-3.52,5.49-5.28,8.23-1.17.52-1.51,1.74-2.17,2.67-2.43,3.44-3.45,3.51-6.06.26.02-1.85-.44-3.59-1.16-5.28-.64-2.39-.48-5.04-2.26-7.06-.95-7.1-4.14-13.32-7.68-19.4-1.13-2.82-2.92-5.22-4.74-7.6-1.53-2.7-3.87-4.73-5.87-7.05ZM387.9,612.7c1.14,3.1,2.33,6.18,3.4,9.3.43,1.27,1.11,1.44,1.77.43,2.41-3.62,5.43-6.84,7.18-10.9,2.24-2.09,3.4-4.88,4.86-7.48.8-1.42.06-1.96-1.35-1.92-.87.03-1.74.05-2.6.18-4.42.65-8.54,2.42-12.85,3.5-1.98.5-2.64,1.88-1.91,3.79.41,1.07.99,2.07,1.5,3.1Z"/>
  <path class="cls-3" d="M260.34,575.77c-.26,20.57-4.27,40.54-9.86,60.25-.37,1.32-.74,2.64-1.01,3.97-.2.99-.31,2.02-1.6,2.1-1.34.08-1.83-.83-2.16-1.96-1.36-4.6-3.05-9.07-5.26-13.34-6.87-13.25-17.26-23.06-29.9-30.69-4.27-2.58-4.32-2.58-3.42-7.32,5.1-26.96,3.44-53.68-2.69-80.26-.92-3.98-1.66-8.02-3.31-11.82-.77-1.78.47-2.92,2.8-2.65,8.56.98,16.59,3.48,23.94,8.11,12,7.55,18.93,18.93,24.07,31.64,4.39,10.84,6.77,22.22,8.34,33.76.37,2.69.05,5.47.05,8.2ZM214.06,559.26c.37,2.97-.71,5.85-.57,8.81-.2,3.13-.4,6.26-.6,9.39-.71,2.89-1.1,5.83-1.18,8.8-.56,1.93-2.3,4.16-.21,5.78,3.4,2.64,7.17,4.79,10.79,7.15,4.51,4.49,9.34,8.66,13.5,13.51,4.72,6.18,8.5,12.89,11.48,20.76,1.78-4.84,2.86-9.19,3.23-13.71.98-2.05,1.39-4.25,1.73-6.47,1.02-6.37-.18-7.67-6.62-7.09-.85.08-1.42-.35-2.12-.72-2.72-1.41-3.59-4.52-5.93-6.26-.28-1.51-1.36-2.53-2.21-3.7-3.46-4.78-8.11-8.33-12.48-12.18.95-4.72,2.37-9.35,2.69-14.19.27-4.15.79-8.31.72-12.46-.07-4.43-.68-8.86-1.06-13.29-.51-3.53-.71-7.12-1.76-10.57.23-1.35-.7-3.16,1.06-3.92,2.05-.88,2.26,1.14,2.99,2.27.1.15.3.24.45.36,2.97,2.23,5.4,4.99,7.85,7.74,2.28,4.05,4.94,7.9,6.47,12.34,3.9,11.42,5.21,23.23,5.28,35.23-.03,3.89.23,7.8-.18,11.65-.52,4.88-.71,4.92,4.1,5.84,1.4.27,2.29.22,2.6-1.65.83-5.05,1.78-10.08,1.71-15.23.9-.89.52-2.02.55-3.05.08-2.63-.22-5.3.16-7.88,1.08-7.38-.69-14.38-2.47-21.4-.23-4.1-1.65-7.9-2.97-11.73-.15-2.38-1.26-4.49-1.96-6.7-.66-2.1-1.87-3.66-4.25-4.4-6.04-1.87-12.03-3.92-17.98-6.07-3.59-1.3-7.26-2.11-11.01-2.68-2.1-.32-4.2,1.13-4.09,3.1.12,2.08.22,4.22,1.1,6.19.22,8.82,1.6,17.58,1.18,26.43ZM228.77,507.57c-6.04-5.31-13.33-7.8-21.04-9.34-1.26-.25-2.12.09-1.61,1.75.77,2.51,1.39,5.06,2.07,7.59-.18,1.6.63,3.02.81,4.55.3,2.49,1.67,2.89,3.86,2.25,2.37-.69,4.84-.5,7.23-.16,4.78.67,9.64.46,14.41,1.35.76.14,2.47-.38,1.3-1.63-2.16-2.29-3.95-5.06-7.03-6.36ZM228.2,536.51c.08,1.08.08,1.46.13,1.84,1.94,12.84,2.38,25.69-.26,38.47-.73,3.55-.48,5.92,2.64,8.38,4.96,3.91,8.82,8.97,12.56,14.93.71-8.32.6-15.89.08-23.45-.54-8-1.79-15.91-4.56-23.5-2.23-6.1-5.2-11.72-10.6-16.68Z"/>
  <path class="cls-10" d="M223.4,398.94c2.29,5.38,4.01,11,7,16.08,4.23,7.18,9.24,13.32,17.91,15.37,2.17.51,3.24,2.13,3.13,4.64-.33,7.16.03,14.28,1.96,21.24,3.02,10.86,9.36,16.47,20.42,17.7,5.51.61,10.92-.5,16.22-1.93,4.12-1.11,8.17-2.48,12.25-3.75.17-.05.3-.29.47-.32,2.57-.37,2.53-.36,2.12-3.25-.89-6.29-1.77-12.58-2.57-18.88-.17-1.31-.49-2.05-1.96-2.41-9.5-2.37-16.04-8.56-21.11-16.61-.98-1.56-1.57-3.39-3.06-4.61-1.02-.84-2.19-1.84-1.06-3.14,1.11-1.28,2.76-1.14,3.93.04,3.73,3.76,8.4,6.03,13,8.37,3.85,1.96,7.89,3.45,12.35,3.21,1.27-.07,2.54.23,2.54,1.74,0,1.46-1.34,1.88-2.53,1.95-5.04.29-9.57-1.51-14.06-3.54-1.55-.7-2.87-2.08-5.13-1.89,5.55,7.01,12.37,11.09,21.12,11.72.68.05,1.37.03,2.05.04,1.37.03,2.74.32,2.74,1.96,0,1.47-1.38,1.95-2.56,1.82-2.66-.29-2.57,1.23-2.31,3.05.91,6.48,1.8,12.97,2.67,19.46.14,1.06.26,2.17.09,3.21-.27,1.63-1.34,2.73-2.82,1.42-1.26-1.12-2.02-.44-3.08-.03-9.62,3.76-19.4,6.81-29.93,5.96-1.91-.16-2.26.63-2.34,2.31-.41,8.98,3.47,15.83,10.29,21.28.69.55,1.44,1.01,2.13,1.56,1.22.96,1.77,2.19.81,3.57-.98,1.41-2.26,1.15-3.63.42-8.76-4.7-14.91-16.04-13.67-25.8.38-3.01-.1-4.51-3.21-5.9-8.14-3.63-12.01-10.85-14.14-19.12-1.6-6.2-2.08-12.54-1.82-18.92.08-2.04-.42-3.03-2.58-3.72-9.25-2.95-14.59-10.15-18.88-18.27-1.84-3.48-3.29-7.18-5.22-11.44-1.51,6.01-2.85,11.36-4.76,16.54-5.23,14.15-12.72,27.05-21.59,39.19-.46.63-.86,1.49-1.65,1.59-4.59.55-6.51,4.34-8.88,7.42-4.06,5.26-6.33,11.42-8.18,17.75-.16.55-.43,1.07-.64,1.6-2.35-.86.11-2.42-.51-3.53.71-1.09.59-2.31.6-3.52,1.35-.6,1.15-1.81,1.17-2.94.39-.59.77-1.18,1.16-1.77.1-1.45,1.41-2.55,1.19-4.09,1.37-1.64,2.55-3.39,3.51-5.3,2.66-4.11,5.88-7.58,10.58-9.39,3.25-3.24,5.64-7.06,7.64-11.16,3.47-4.27,6.14-9.01,8.21-14.1,1.76-2.14,2.34-4.88,3.67-7.22,1.67-2.93.9-5-1.3-7.23-4.69-4.76-9.38-9.57-12.94-15.28-1.57-2.52-2.81-5.26-4.2-7.9,1.11-1.79,2.22-3.57,3.33-5.36,1.45.93,1.7,2.53,2.24,3.97,2.56,6.83,7.53,11.18,14.28,13.56,2.97,1.05,4.89-.12,5.55-3.31.48-2.33.95-4.4,4-4.11Z"/>
  <path class="cls-6" d="M443.67,469.41c-1.97-2.88-3.72-5.93-6.27-8.38-1.39-1.34-2.71-2.56-4.75-3.15-2.55-.74-3.7-3.25-4.85-5.51,1.2.01,1.63-.86,2.09-1.75.66-1.3,1.28-2.64,2.09-3.84,4.87-7.22,11.47-12.8,17.79-18.66,2.2-2.05,5.27-3.03,6.88-5.75,4.4,1.94,7.8,5.41,11.98,7.73,2.53,1.4,5.25,2.55,7.42,4.57-1.16,3.18-2,6.47-4.04,9.3-6.18,8.56-13.19,16.32-21.73,22.56-1.92,1.4-4.06,2.71-6.6,2.89Z"/>
  <path class="cls-10" d="M309.39,289.77c.43.3.46.62.06.97-3.08,2.25-3.7,2.01-4.62-1.94-1.19-5.16-2.56-10.25-5.35-14.83-4.4-7.23-10.19-9.48-18.25-6.91-9.2,2.93-16.42,8.99-23.34,15.36-13.52,12.43-25.13,26.57-36.25,41.13-1.32,1.73-2.56,3.31-4.95,3.74-2.87.52-4.77,2.86-7.1,4.38-19.12,12.45-36.69,26.72-51.56,44.12-12.65,14.81-22.46,31.25-28.51,49.84-2.77,8.5-4.52,17.22-5.49,26.1-.01.1,0,.2-.03.29-.44,1.76-.46,4.25-2.74,4.27-2.65.03-1.91-2.63-1.93-4.15-.13-12.19.2-24.36,2.96-36.33.64,2.05-.54,3.96-.42,5.97-.03,1.17.03,2.35-.12,3.5-.3,2.24,1.14,4.55,3.54,4.91,2.29.34,1.55-1.89,2.09-3.01.38-.79.62-1.63.93-2.45-.23-2.86,2.15-4.9,2.36-7.62,1.58-3.71,3.16-7.42,4.73-11.13,1.5-1.71,1.98-3.92,2.94-5.9,1.14-1.67,2.2-3.39,2.9-5.3.97-1.38,1.94-2.75,2.91-4.13.44-1.9,2.18-2.98,2.95-4.68,3.29-4.29,6.54-8.6,9.95-12.79,2.05-2.51,4.98-4.4,5.99-7.72,2.74-1.31,4.42-3.76,6.38-5.91,1.5-1.21,2.98-2.45,4.51-3.63,1.89-1.45,2.29-2.96,1.12-5.26-1.65-3.25-3.89-6.28-4.5-10.02,2.57-1.87,5.23-3.58,8.24-4.67.55,3.61,1.13,7.22,2.47,10.65.3.75.62,2.41,1.86,1.15,1.63-1.65,3.92-2.54,5.12-4.63.44-.18.95-.27,1.31-.54,5.7-4.33,11.42-8.61,17.57-12.29,2.07-1.24,4.12-2.64,4.58-5.32,4.27.14,6.33-2.79,8.62-5.78,9.75-12.73,19.93-25.11,31.52-36.24,7.7-7.39,15.66-14.5,25.75-18.56,11.94-4.8,20.96-1.22,26.6,10.39,2.06,4.24,3.3,8.76,4.32,13.34.14.62-.08,1.44.87,1.62Z"/>
  <path class="cls-5" d="M200.56,445.91c-1.99,4.1-4.39,7.92-7.64,11.16.45-5.38-1.75-10.19-3.61-14.95-2.53-6.48-6.07-12.44-11.86-16.71-2.68-1.97-5.28-1.74-7.47.67-3.85,4.25-6.49,9.3-8.86,14.41-1.75,3.76-1.77,7.82,1.45,11.16,3.24,3.37,6.34,6.93,10.23,9.58,3,2.04,5.57,4.96,9.55,5.24-.96,1.91-2.14,3.66-3.51,5.3-1.57.1-2.95-.62-4.02-1.53-7.16-6.1-14.51-12-20.57-19.27-2.95-3.54-3.24-7.23-.82-10.41,1.53-2.01,3.2-3.9,4.66-5.95,1.91-2.68,3.91-5.34,4.26-8.79,6.79-5.07,13.3-10.48,19.34-16.43.96,1.91.89,4.19,2.19,5.97,6.9,9.46,12.29,19.74,16.68,30.56Z"/>
  <path class="cls-10" d="M270.87,338.64c-3.48-5.31-8.5-9.1-13.16-13.24-.22-.19-.47-.35-.7-.54-1.1-.89-2.36-1.9-1.08-3.36,1.07-1.23,2.31-.46,3.36.4,3.56,2.91,7.07,5.88,10.25,9.21,8.14,8.56,14.69,18.04,17.02,29.9,2.64,13.46-1.24,25.51-8.05,36.9-.63,1.06-1.61,1.96-2.9,1.12-1.5-.96-.72-2.25-.07-3.34,3.7-6.18,6.49-12.7,7.57-19.86,1.35-8.97-.06-17.5-4.17-25.61-1.12-2.21-3.59-2.43-5.28-3.86-8.05-6.78-17.45-9.84-27.97-9.14-2.72.18-5.41.73-8.1,1.21-1.32.24-2.75.58-3.18-1.05-.49-1.84,1.06-2.24,2.43-2.58,10.32-2.51,20.35-1.85,30.01,2.75,1.14.55,2.29,1.1,3.43,1.64.32.3.73.76,1.1.36.46-.49-.15-.71-.5-.93Z"/>
  <path class="cls-10" d="M354.03,339.22c5.87-3,11.95-5.22,18.63-5.67,5.14-.35,10.13.28,15.1,1.4,1.23.28,2.42.81,2.14,2.26-.32,1.64-1.61,1.62-3.01,1.29-10.35-2.38-20.33-1.69-29.87,3.4-3.81,2.03-6.68,5.38-10.7,7.08-.65.28-1.01,1.39-1.38,2.17-6.1,12.68-5.41,25.33.31,37.91,1.05,2.31,2.38,4.48,3.57,6.73.6,1.14,1.37,2.44-.19,3.31-1.48.83-2.39-.34-3.05-1.45-10.43-17.48-12.19-35.2-1.28-53.18,5.39-8.9,12.67-16.09,20.73-22.55,1.04-.83,2.27-1.59,3.33-.22,1.06,1.37-.05,2.4-1.06,3.19-4.09,3.2-7.89,6.72-11.44,10.5-.92.98-2.04,1.85-2.44,3.24-.36.22-.97.45-.51.95.37.41.79-.07,1.12-.36Z"/>
  <path class="cls-10" d="M314.45,292.6c-.93-1.07.4-2.06.11-3.11,1.4.44,1.05-.73,1.2-1.37,1.31-5.53,2.78-11,5.8-15.9,5.48-8.92,13.13-11.75,23.09-8.45,8.73,2.9,15.79,8.49,22.53,14.48,14.84,13.18,27.15,28.63,39.26,44.25.6.77,1.06,1.65,2,2.09-.54,1.03-.4,2.05,0,3.08-2.71-.38-4.37-2.08-5.98-4.18-10.72-13.98-21.85-27.62-34.72-39.71-6.57-6.17-13.44-12.01-21.86-15.58-10.55-4.48-17.56-1.76-22.56,8.58-1.93,3.99-3.01,8.25-4.02,12.53-.48,2.05-.85,4.12-3.76,2.26-.68-.44-.72.68-1.1,1.02Z"/>
  <path class="cls-12" d="M421.97,443.56c-2.89-4.01-5.32-8.27-7.05-12.92.61-.02,1.15-.23,1.56-.7,4.59-5.29,9.13-10.63,13.8-15.85,2.71-3.03,5.63-5.87,8.45-8.8,3.27,3.34,6.54,6.69,9.81,10.03-1.45.71-2.44,1.96-3.46,3.12-7.51,8.55-15.92,16.28-23.11,25.12Z"/>
  <path class="cls-10" d="M462.31,279.57c3.19-6.28,6.93-12.25,10.8-18.12,1.64-2.49.93-3.08-1.5-3.84-26.21-8.2-50.94-4.41-74.53,8.99-4.51,2.56-8.84,5.41-13.03,8.46-1.22.89-2.64,1.98-3.78.28-1.04-1.55.52-2.46,1.6-3.25,20.57-15.04,43.1-24.05,69.09-22.25,8.53.59,16.81,2.45,24.86,5.31,2.74.97,3.45,3.27,1.87,5.87-3.14,5.18-6.34,10.33-9.48,15.51-.48.8-1.32,1.5-1.01,2.62,0,0,.03-.04.03-.04-.61.03-.6.49-.64.91-1.69,2.45-2.89.14-4.27-.45Z"/>
  <path class="cls-12" d="M200.56,445.91c-4.39-10.82-9.78-21.1-16.68-30.56-1.3-1.78-1.23-4.07-2.19-5.97,2.85-3.33,5.69-6.65,8.54-9.98,1.57.39,1.73,1.85,1.95,3,.37,1.99,1.33,3.66,2.29,5.34,3.29,5.73,6.5,11.52,10.03,17.1,1.46,2.31,1.45,5.53,4.27,6.98-2.08,5.08-4.75,9.82-8.21,14.1Z"/>
  <path class="cls-6" d="M163.04,365.48c-1.01,3.32-3.94,5.22-5.99,7.72-3.42,4.19-6.67,8.5-9.95,12.79-4.7-2.55-8.59-5.87-10.45-11.11,4.36-7.74,9.8-14.63,16.29-20.69.03.72.29,1.36.87,1.77,3.7,2.57,6.52,5.99,9.22,9.52Z"/>
  <path class="cls-10" d="M320.96,468.09c-.41.9-.73,1.81-.58,2.82-.38-.02-.83-.19-1.14-.05-3.52,1.63-4.43,1.08-3.98-2.83.77-6.6,1.7-13.18,2.63-19.76.3-2.14.78-4.15-2.61-3.85-1.04.09-2.29-.5-2.16-1.88.15-1.64,1.51-1.84,2.85-1.84,8.28-.03,15.19-3.19,20.86-9.17.67-.7,1.42-1.35,1.69-2.52-1.2-.42-1.97.48-2.83.91-4.13,2.05-8.31,3.94-12.98,4.37-.49.04-.98.21-1.45.15-1.56-.22-3.9.18-3.86-2.1.03-2.23,2.26-1.61,3.73-1.64,2.18-.05,4.29-.48,6.3-1.25,6.43-2.44,12.5-5.52,17.62-10.23,1.25-1.15,2.77-1.44,3.95-.29,1.42,1.39.08,2.41-.98,3.33-1.45,1.25-2.05,3.07-3.03,4.63-5.08,8.05-11.64,14.2-21.14,16.57-1.1.28-1.65.69-1.81,1.88-.9,6.88-1.88,13.75-2.85,20.62-.19,1.39-.21,2.58,1.78,2.14Z"/>
  <path class="cls-5" d="M421.97,443.56c7.19-8.84,15.6-16.57,23.11-25.12,1.02-1.16,2.01-2.41,3.46-3.12,2.86,2.17,5.82,4.22,8.11,7.05-1.61,2.73-4.67,3.71-6.88,5.75-6.32,5.86-12.91,11.44-17.79,18.66-.81,1.2-1.42,2.54-2.09,3.84-.46.89-.89,1.76-2.09,1.75-2.43-2.62-4.2-5.67-5.84-8.81Z"/>
  <path class="cls-3" d="M408.46,327.68c-.4-1.03-.55-2.05,0-3.08,1.7-.5,3.23.34,4.82.64,3.5.66,6.98,1.44,10.47,2.16-.02.96-.73,1.58-1.24,2.23-1.48,1.89-1.51,3.27.76,4.65,1.54.94,2.92,2.16,4.56,2.97,1.5,1.71,3.47,2.82,5.29,4.12,3.61,3.51,7.36,6.84,11.74,9.39.95,1.67,2.84,2.24,4.11,3.54,1.48,1.88,3.03,3.69,5.3,4.67,2.5,3.11,2.62,3.02,5.02.12,2.48-3.01,4.17-6.49,6.25-9.74.74.21,1.34.6,1.69,1.31-.99,3.59-3.66,6.05-6.02,8.65-3.25,3.58-3.35,3.79.12,7.29,1.34,1.79,2.89,3.37,4.7,4.7,1.26,2.57,3.17,4.6,5.27,6.48,2.79,4.56,5.98,8.85,9.37,12.99.61,1.33,1.22,2.67,1.83,4,.98,1.71,1.28,3.92,3.48,4.73.14,2.04,1.15,3.69,2.34,5.27,1.97,4.7,3.94,9.41,5.9,14.11.78,2.54,1.57,5.08,2.35,7.62-.27.51-.75.58-1.25.62-4.98-14.59-11.72-28.27-20.82-40.77-15.27-20.97-34.55-37.63-55.89-52.07-2.01-1.36-4-2.77-6-4.16-.04-.7-.4-1.09-1.12-1.12l-3.01-1.35Z"/>
  <path class="cls-14" d="M174.47,554.67c1.13,3.76,1.1,7.72,1.87,11.54.25,1.26.39,2.47,1.2,3.54.91,1.2,1.26,2.6-.11,3.63-1.31.99-2.38.05-3.28-.94-3.54-3.93-6.71-8.15-9.74-12.47-14.21-20.27-23.33-42.59-26.51-67.2-2.21-17.11-1.09-34.1,2.35-50.98.77-3.76,3.41-5.48,6.74-6.55,1.35,1.38-.31,1.83-.87,2.46-2.63,2.94-2.8,6.89-.37,10.07,3.8,4.99,8.68,8.95,12.92,13.51.78.83,1.91,1.44,1.93,2.8-1.47-.06-2.07-1.34-3.01-2.14-4.06-3.47-8.06-7.05-13.21-8.86-4.69-1.64-4.71-1.59-5.51,3.35,0,1.76,0,3.52-.01,5.28-.23,2.55-.86,5.07-.55,7.66.02,3.92.04,7.84.07,11.76.59,4.7-.02,9.53,1.53,14.12-.03,3.02.54,5.97,1.32,8.86,1.66,6.13,2.84,12.43,5.79,18.15.64,3.15,1.76,6.11,3.55,8.8.65,2.97,2.28,5.51,3.59,8.19,1.94,3.14,3.29,6.65,5.83,9.42.05.29.04.61.18.85,3.8,6.54,8.79,12.3,12.45,18.92.43.77,1.29.98,2.05.59.88-.46.25-1.26.05-1.8-1.52-4.18-.73-8.38-.27-12.59Z"/>
  <path class="cls-10" d="M156.5,277.98c-2.38-5.58-5.73-10.63-9.19-15.52-3.08-4.35-.84-8.5,3.39-9.68,7.32-2.04,14.63-3.87,22.25-4.17-.08,1.58.62,2.36,2.24,2.31,4.75-.14,9.49.09,14.22.57,2.11.28,4.24.48,6.33.87,10.44,1.93,20.14,5.9,29.47,10.86,2.73.86,4.86,4.56,8.35,1.73,2.91,1.5,5.22,3.92,8.24,5.26.49.22,1,.76,1.17,1.27.46,1.36,2.28,2.74.64,4.19-1.46,1.29-2.73-.16-3.86-.99-13.35-9.71-27.81-16.97-44.17-20.04-14.72-2.76-29.15-1.49-43.36,3.01-.79.25-1.8.3-2.01,1.42-.71-.57-.86-2.25-2.41-1.14-1.24.88-.47,1.81.02,2.54,1.65,2.52,2.91,5.3,5,7.52,2.07,3.82,4.14,7.64,6.26,11.54-1.07.17-1.58-.21-1.96-.84-.1-.35-.2-.71-.66-.75l.04.05Z"/>
  <path class="cls-8" d="M407.29,407.15c-1.77-.85-2.52-2.44-2.65-4.23-.17-2.48-.94-4.17-3.8-4,1.62-2.57,1.06-5.32.88-8.12-.63-10.24,0-20.37,3.12-30.24,0,.87.22,1.82-.07,2.58-1.67,4.56-.58,9.4-1.52,14.02-.02,2.55-.04,5.1-.06,7.65,0,1.36-.08,2.73,0,4.09.06,1.13-.54,2.52.47,3.34,3.56,2.88,8.81,4.86,13.17,1.81,3.34-2.34,6.07-5.42,7.55-9.38,1.78,2.92,3.56,5.84,5.34,8.77-5.17,8.34-11.79,14.33-22.43,13.72Z"/>
  <path class="cls-5" d="M443.67,469.41c2.54-.18,4.68-1.49,6.6-2.89,8.54-6.25,15.56-14,21.73-22.56,2.04-2.83,2.88-6.12,4.04-9.3.84.44,1.64,1.01,2.54,1.29,2.91.92,4.65,2.79,5.06,5.84-2.72.54-3.17,3.25-4.59,4.97-6.22,7.53-13.21,14.3-20.11,21.17-3.46,3.45-7.33,6.38-11.75,8.53-1.17-2.35-2.35-4.7-3.52-7.05Z"/>
  <path class="cls-15" d="M206.54,370.13c2.33-7.24,4.73-14.46,6.04-21.99.21-1.19.71-2.45,2.22-2.18,1.3.24,1.3,1.42,1.3,2.58,0,3.49,2.4,6.36,2.66,9.8,0,.85-.29,1.78.63,2.39,0,0-.01-.03-.02-.03-.04.85-.31,1.77.6,2.38,0,0-.01-.03-.01-.03.02,1.03-.44,2.15.63,2.96,0,0-.02-.04-.02-.04.34,5.68.71,11.37.48,17.07-6.34.05-8.19-1.18-10.61-7.07-.55-1.34-1.09-2.69-1.66-4.02-.43-1-.87-2-2.26-1.83Z"/>
  <path class="cls-15" d="M403.26,377.17c.94-4.62-.15-9.46,1.52-14.02.28-.77.06-1.72.07-2.58-.05-.14-.01-.26.1-.36.68-.47.64-1.14.54-1.84,0,0-.02.02-.02.02.19-.2.39-.4.58-.6-.02-.45-.04-.89-.06-1.34-.02-.14.01-.26.1-.37.54-.35.62-.84.47-1.42-.02-.13.01-.25.11-.35.55-.33.63-.83.49-1.41-.02-.13.02-.25.11-.35.51-.29.64-.73.52-1.28,0,0-.02.02-.02.02,2.09-1.74,3.26-.59,4.16,1.34.24.53.43,1.08.64,1.62,2.33,6.86,4.65,13.72,6.98,20.59-1.61.83-1.91,2.59-2.81,3.94-2.36,3.52-5.52,6.39-9.83,1.25-.49-.59-1.04-1.15-1.43-1.81-.53-.88-1.3-1.07-2.22-1.07Z"/>
  <path class="cls-11" d="M160.61,464.11c-.02-1.36-1.16-1.97-1.93-2.8-4.24-4.56-9.12-8.52-12.92-13.51-2.43-3.18-2.25-7.13.37-10.07.56-.63,2.23-1.08.87-2.46,5.11-3.15,10.23-6.3,15.34-9.46-.35,3.45-2.36,6.11-4.26,8.79-1.46,2.05-3.14,3.94-4.66,5.95-2.42,3.18-2.13,6.88.82,10.41,6.06,7.27,13.42,13.17,20.57,19.27,1.07.91,2.45,1.63,4.02,1.53.22,1.54-1.09,2.64-1.19,4.09-1.91.35-2.99-1.54-4.69-1.75-.79-.39-1.57-.79-2.36-1.18-.46-1.83-1.51-2.95-3.52-2.93-.39-.39-.79-.79-1.18-1.18-.17-1.4-.95-2.18-2.34-2.34-.98-.79-1.96-1.57-2.94-2.36Z"/>
  <path class="cls-10" d="M483.15,336.96c-7.47-2.22-13.57-5.81-17.57-12.37-1.54-2.53-2.53-5.27-3.31-8.11-.36-1.29-.21-2.47,1.17-2.88,1.49-.44,2.13.7,2.43,1.9,2.84,11.17,10.63,16.58,21.45,18.48.86.15,1.79.23,2.56.6,1.48.73,1.83,2.13.42,2.97-5.9,3.49-11.87,7.13-19.18,5.75-8.58-1.62-13.1-7.93-16.78-15.08-.5-.98-.38-2.02.67-2.53,1.16-.56,2.11-.02,2.67,1.07,1.26,2.44,2.72,4.75,4.44,6.89,5.34,6.63,13.71,8.07,21.03,3.31Z"/>
  <path class="cls-10" d="M141.04,336.95c7.1,4.52,15.05,3.4,20.23-2.49,2.08-2.37,3.71-5.02,5.23-7.76.53-.96,1.33-1.83,2.61-1.12,1.22.67,1.12,1.87.61,2.83-3.75,7.09-8.26,13.35-16.91,14.9-4.34.77-8.33-.43-12.22-2.12-1.6-.7-3.12-1.61-4.62-2.53-1.16-.71-3.18-.84-2.76-2.86.39-1.88,2.32-1.58,3.65-1.84,7.13-1.38,13.44-4.1,17.8-10.25,1.72-2.43,2.76-5.16,3.58-7.98.38-1.3.87-2.63,2.51-2.17,1.62.46,1.39,1.84,1.04,3.17-2.49,9.55-8.55,15.8-17.72,19.18-.91.34-1.84.63-3.04,1.05Z"/>
  <path class="cls-10" d="M486.97,481.71c-.25,12.6-2.72,24.81-6.52,36.78-6.25,19.65-16.45,37.09-29.54,52.92-.62.75-1.33,1.45-2.12,2-.8.56-1.69.39-2.41-.3-.63-.6-.85-1.36-.46-2.14,3.46-6.81,3.21-14.36,4.12-21.63,1.41-11.25,2.13-22.57,1.97-33.94-.09-6.37-.92-12.67-1.26-19,.39-.19.77-.38,1.16-.58.01.99.02,1.97.04,2.96.66,2.29.23,4.77,1.14,7.02l.1,5.3c.7,4.1.27,8.2-.01,12.3-.05,2.93-.1,5.87-.15,8.8-.48.44-.51,1.03-.52,1.62-.04,5.76-1.17,11.41-1.67,17.11-.52,5.91-2.28,11.68-1.89,17.68-.14.22-.28.44-.41.67,0,.01.14.11.21.16.09-.25.18-.51.27-.76,2.49-1.12,3.91-3.51,5.41-5.45,8-10.34,14.79-21.45,19.92-33.54,5.72-13.51,9.82-27.4,11.02-42.08,0-1.77.02-3.54.03-5.31.36-.64.98-.58,1.57-.6Z"/>
  <path class="cls-8" d="M221.06,383.05c.23-5.7-.14-11.38-.48-17.07,2.16,7.86,2.48,15.89,1.96,23.95-.2,3.09-.79,6.13.86,9.01-3.04-.28-3.51,1.78-4,4.11-.66,3.19-2.58,4.35-5.55,3.31-6.75-2.38-11.72-6.73-14.28-13.56-.54-1.44-.79-3.04-2.24-3.97,1.83-3.36,3.66-6.72,5.48-10.08.31,5.25,2.64,9.68,5.74,13.75,1.89,2.49,4.48,3.92,7.58,4.5,3.28.61,4.96-.67,4.97-3.98,0-.97,0-1.95-.01-2.92-.01-2.35-.02-4.71-.04-7.06Z"/>
  <path class="cls-14" d="M438.73,405.28c-2.83,2.93-5.75,5.77-8.45,8.8-4.67,5.22-9.2,10.56-13.8,15.85-.41.47-.94.68-1.56.7-2.14-2.59-2.8-5.91-4.38-8.78-.51-.93-.15-1.64.52-2.34.73-.77,1.4-1.59,2.1-2.39,5.85-3.16,11.14-6.99,15.55-12.07,1.68-1.93,2.72-4.58,5.41-5.55,1.54,1.92,3.08,3.85,4.61,5.77Z"/>
  <path class="cls-2" d="M447.2,476.47c4.42-2.15,8.29-5.08,11.75-8.53,6.89-6.87,13.89-13.65,20.11-21.17,1.42-1.72,1.87-4.43,4.59-4.97.56,2.94,1.11,5.88,1.67,8.82-.46,0-.87.13-1.1.58-1.36.03-2,1.14-2.8,1.95-7.42,7.39-14.69,14.92-22.28,22.13-2.96,2.81-5.85,6.02-10.14,7.05-.6-1.95-1.2-3.9-1.8-5.85Z"/>
  <path class="cls-10" d="M226.66,244.16c5.69-2.04,11.21-4.6,17.34-5.22,2.18-.22,4.29,0,6.34.73,1,.36,1.7,1.07,1.44,2.23-.27,1.21-1.26,1.54-2.28,1.27-6.65-1.71-12.5,1.09-18.39,3.34-4.29,1.63-8.43,3.64-12.42,5.94-1.23.71-2.58,1.47-3.7.16-1.33-1.54.38-2.36,1.15-3.39,5.11-6.88,11.31-12.41,19.36-15.65,3.18-1.28,6.47-2.22,9.89-2.57,1.18-.12,2.57-.23,2.86,1.3.34,1.75-1.1,2.09-2.38,2.29-6.9,1.09-13.14,3.69-18.58,8.13-.37.3-.67.69-1,1.04-.1.18-.2.36-.3.54.22-.05.45-.1.67-.15Z"/>
  <path class="cls-10" d="M396.29,242.55c-4.75-4.22-10.43-6.38-16.57-7.55-.67-.13-1.36-.16-2.02-.34-.98-.27-1.94-.72-1.78-1.96.18-1.31,1.2-1.77,2.37-1.64,1.55.17,3.09.44,4.61.8,10.61,2.49,18.62,8.74,25.01,17.32.93,1.25,1.59,2.58.22,3.93-1.38,1.36-2.61.59-3.89-.33-6.63-4.78-13.64-8.79-21.8-10.34-1.72-.33-3.49-.37-5.23-.6-1.18-.16-2.56-.38-2.49-1.91.07-1.66,1.45-1.89,2.81-1.85,5.26.16,10.2,1.61,15.02,3.59,1.08.44,2.16.91,3.24,1.36.23.22.32.86.77.49.32-.26.1-.71-.26-.97Z"/>
  <path class="cls-14" d="M208.77,431.81c-2.83-1.45-2.81-4.68-4.27-6.98-3.54-5.58-6.74-11.37-10.03-17.1-.96-1.68-1.92-3.35-2.29-5.34-.21-1.15-.38-2.6-1.95-3,1.07-1.87,2.29-3.64,3.77-5.21,1.39,2.64,2.63,5.38,4.2,7.9,3.56,5.71,8.25,10.52,12.94,15.28,2.2,2.23,2.97,4.3,1.3,7.23-1.33,2.33-1.91,5.08-3.67,7.22Z"/>
  <path class="cls-12" d="M448.35,306.11c1.2-3.34,2.81-6.48,4.66-9.5.75,1.01,1.65.63,2.61.35,2.49-.74,5.07-1.22,7.48-2.16,1.94-.76,4.27-.53,5.86-2.2,1.03-.34,2.05-.68,3.08-1.02,4.49-1.76,7.8-.94,9.68,2.41-9.11,4.02-17.54,9.13-25.08,15.66-2.78-1.11-5.15-3.21-8.27-3.55Z"/>
  <path class="cls-6" d="M480.65,390.78c-3.39-4.14-6.57-8.42-9.37-12.99,0-.79.05-1.56.69-2.15,3.38-3.1,6.8-6.13,11.64-6.67,3.15,4.27,6.07,8.67,7.75,13.77-3.23,3.14-7.69,4.63-10.72,8.04Z"/>
  <path class="cls-10" d="M486.15,462.24c1.21,1.59.91,3.48.94,5.27.05,3.77-.03,7.53-.05,11.3-2.47-.77-4.82-1.51-7.58-.95-6.32,1.29-11.85,4.18-17.34,7.38-4.1,2.39-7.53,5.82-11.98,7.65-.17-.79-.34-1.57-.51-2.36,1.18-.08,1.12-.94,1.12-1.77,1.55-.97,3.17-1.84,4.63-2.92,8.68-6.39,17.39-12.73,27.29-17.17,1.84-.83,3.34-1.92,2.75-4.37-.18-.74-.08-1.57.73-2.06Z"/>
  <path class="cls-7" d="M138.32,469.4c-.31-2.59.32-5.11.55-7.66,3.34.74,6.45,1.92,9.43,3.71,6.05,3.63,11.08,8.48,16.41,12.98,2.96,2.5,6.05,4.87,10.01,5.64.62,1.11-1.84,2.67.51,3.53-.22.96-.44,1.91-.66,2.87-.35,0-.7.01-1.04.02.09-1.27-.1-2.04-1.68-2.48-1.94-.53-3.75-1.64-5.5-2.68-5.54-3.29-9.91-8.13-15.28-11.65-3.85-2.53-7.55-5.7-12.75-4.29Z"/>
  <path class="cls-12" d="M449,482.31c4.29-1.02,7.18-4.24,10.14-7.05,7.59-7.21,14.86-14.74,22.28-22.13.81-.8,1.44-1.91,2.8-1.95,1,.92.48,2.12.58,3.2.08.93-.13,1.97,1.25,2.1-.01.39-.03.78-.04,1.17-1.17-.2-1.64.68-2.34,1.36-3.35,3.24-6.61,6.62-10.24,9.53-7.63,6.11-15.21,12.31-23.26,17.88l-1.09-.32s.02-.07.02-.07c.88-1.26-.32-2.47-.09-3.72Z"/>
  <path class="cls-15" d="M444.85,350.78c-4.38-2.55-8.13-5.88-11.74-9.39.92-3.31,2.13-6.47,4.77-8.86,5.24,1.72,9.96,4.44,14.55,7.42-1.48.58-1.12,2.11-1.58,3.2-1.32,3.1-2.42,6.32-6,7.63Z"/>
  <path class="cls-2" d="M173.03,299.64c2.58,4.28,4.63,8.82,6.41,13.48-2.28,1.42-4.57,2.84-6.85,4.26-.62.03-1.1-.19-1.36-.79.36-.78.87-1.44-.11-2.28-3.86-3.34-7.3-7.15-11.62-9.99-1.35-.89-3.24-1.46-3.6-3.47,5.74,0,11.44-.54,17.13-1.2Z"/>
  <path class="cls-10" d="M268.25,368.9c-12.48-.25-21.47-6.62-27.97-17.08-.63-1.02-1.27-2.23.13-3.06,1.41-.84,2.34.05,3.09,1.25,2.3,3.67,5.08,6.92,8.51,9.58,7.45,5.79,15.88,6.37,24.75,4.54.57-.12,1.14-.27,1.7-.42,1.24-.32,2.46-.34,2.87,1.14.41,1.49-.64,2.07-1.89,2.41-3.59.97-7.24,1.55-11.18,1.64Z"/>
  <path class="cls-13" d="M211.71,325c-.46,2.69-2.51,4.08-4.58,5.32-6.15,3.68-11.87,7.97-17.57,12.29-.37.28-.87.37-1.31.54-1.74-.42-1.75-1.83-1.77-3.19-.04-2.5-.03-5-.04-7.5,7.97-4.04,16.57-5.94,25.28-7.47Z"/>
  <path class="cls-10" d="M356.34,368.9c-4.27-.05-7.73-.6-11.14-1.52-1.25-.33-2.69-.69-2.29-2.42.4-1.72,1.93-1.47,3.14-1.17,5.09,1.27,10.2,1.74,15.38.74,7.87-1.52,13.48-6.3,18.03-12.59.46-.63.9-1.28,1.31-1.95.74-1.2,1.7-2.12,3.09-1.18,1.27.86.71,2.07.06,3.11-6.56,10.45-15.58,16.79-27.57,16.96Z"/>
  <path class="cls-7" d="M494.2,418.9c-1.97-4.7-3.94-9.41-5.9-14.11,1.13-.4,1.46-1.53,1.99-2.39,1.1-1.79,2.58-3.08,4.32-4.15,1.16-.72,2.13-.88,2.66.78.2.61.7,1.12,1.06,1.67.11.1.14.23.09.37-.1.73-.26,1.48.56,1.95,0,0-.02-.03-.02-.03,0,.85-.36,1.79.63,2.37,0,0-.02-.03-.02-.03-.03.85-.37,1.79.61,2.38,0,0-.02-.03-.02-.03-.06,2.06.03,4.09,1.26,5.87,0,0-.04-.02-.04-.02-.03.81-.05,1.62-.07,2.43.16.4.33.81.49,1.21.02.97.04,1.95.06,2.92-2.66.36-5.06-.98-7.64-1.18Z"/>
  <path class="cls-10" d="M434.11,399.51c-2.69.97-3.73,3.62-5.41,5.55-4.41,5.07-9.7,8.91-15.55,12.07.23-.51.33-1.15.7-1.52,1.05-1.06,2.19-2.17,1.51-3.74-.72-1.64-2.44-2.1-4.05-2.33-1.72-.24-3.55-.11-4.02-2.39,10.65.61,17.26-5.37,22.43-13.72,1.47,2.02,2.93,4.05,4.4,6.07Z"/>
  <path class="cls-11" d="M450.16,486.42c8.06-5.57,15.63-11.77,23.26-17.88,3.63-2.91,6.89-6.28,10.24-9.53.71-.68,1.17-1.56,2.34-1.36.05,1.53.09,3.06.14,4.59-.81.49-.91,1.32-.73,2.06.59,2.45-.91,3.55-2.75,4.37-9.91,4.45-18.61,10.78-27.29,17.17-1.47,1.08-3.09,1.95-4.63,2.92-.36-.11-.73-.21-1.09-.32.13-.14.27-.28.4-.42.04-.54.07-1.07.11-1.61Z"/>
  <path class="cls-15" d="M157.12,278.68c.37.63.88,1.02,1.96.84-2.12-3.91-4.19-7.72-6.26-11.54.91.04,1.75-.19,2.54-.63,2.77,4.39,5.55,8.77,7.73,13.49-3.97,1.91-8.16,3.06-12.53,3.57-.52.06-.91.31-1.17.76-3.37-1.48-6.12-4.23-9.89-4.91-.24-1.61.78-2.29,2.06-2.74,4.47-1.59,8.92-1.99,13.34.18.5.24,1,.64,1.62.28,0,0-.04-.05-.04-.05-.18.6.34.59.66.75Z"/>
  <path class="cls-5" d="M163.04,365.48c-2.7-3.53-5.52-6.95-9.22-9.52-.58-.4-.84-1.05-.87-1.77,2.6-2.51,5.19-5.03,8.2-7.05.55,1.4,1.67,2.37,2.54,3.53,2.11,2.82,5.45,4.89,5.73,8.89-1.96,2.16-3.64,4.61-6.38,5.91Z"/>
  <path class="cls-8" d="M450.13,492.89c4.45-1.83,7.87-5.26,11.98-7.65,5.49-3.2,11.01-6.1,17.34-7.38,2.76-.56,5.12.18,7.58.95-.02.97-.04,1.94-.06,2.9-.59.02-1.21-.04-1.57.6-1.34.32-2.6-.33-4.01-.2-7.1.63-13.13,3.88-19.2,7.2-3.58,1.96-6.5,4.92-10.29,6.52-.39.19-.77.38-1.16.58-.47-1.12-.62-2.31-.62-3.51Z"/>
  <path class="cls-7" d="M221.09,390.11c0,.97.02,1.95.01,2.92-.02,3.3-1.69,4.59-4.97,3.98-3.1-.58-5.69-2.01-7.58-4.5-3.1-4.07-5.43-8.5-5.74-13.75-.02-.16.03-.29.16-.39.15-.29.29-.57.44-.86-.05-.14-.02-.24.11-.31.46-.27.56-.71.55-1.2.15-.93.45-1.78,1.1-2.49.58,2.98,1.85,5.72,2.99,8.51,2.63,6.45,6.13,8.61,12.94,8.1Z"/>
  <path class="cls-7" d="M424.38,384.67c-1.47,3.97-4.21,7.05-7.55,9.38-4.36,3.05-9.61,1.07-13.17-1.81-1.01-.82-.41-2.21-.47-3.34-.07-1.36,0-2.72,0-4.09,1.34.06,1.94,1.2,2.79,1.96,2.7,2.41,6.29,3.24,8.79,1.58,3.39-2.26,6.04-5.2,6.64-9.5,1.05,1.41,1.77,3,2.35,4.65.14.24.29.48.43.72.13.11.19.26.18.43Z"/>
  <path class="cls-12" d="M169.42,359.57c-.28-4-3.62-6.06-5.73-8.89-.87-1.16-2-2.13-2.54-3.53,2.88-2.53,5.98-4.73,9.4-6.48.61,3.73,2.85,6.76,4.5,10.02,1.17,2.3.77,3.81-1.12,5.26-1.53,1.18-3.01,2.42-4.51,3.63Z"/>
  <path class="cls-13" d="M135.41,406c-1.58,3.71-3.16,7.42-4.73,11.13-1.36-.5-2.77-.89-4.06-1.53-2.27-1.14-3.4-2.55-2.64-5.57.82-3.24,2.16-6.46,2-9.92.08-.4.16-.81.24-1.21.12-.17.24-.34.36-.51,0,0,.02-.04.02-.04,4.36.92,6.47,4.43,8.82,7.66Z"/>
  <path class="cls-5" d="M483.62,368.97c-4.84.54-8.26,3.58-11.64,6.67-.64.59-.7,1.36-.69,2.15-2.1-1.88-4.01-3.91-5.27-6.48,0-1.24,1.09-1.76,1.7-2.6,2.52-3.43,6.76-4.82,9.48-8.02,2.52,2.46,4.6,5.27,6.42,8.27Z"/>
  <path class="cls-9" d="M448.35,306.11c3.12.34,5.48,2.43,8.27,3.55-.47,1.03-1.44,1.48-2.31,2.1-1.75,1.25-3,2.74-1.77,5.06-1.61,1-2.73,3.22-5.27,1.76-.73-.42-.95.76-1.2,1.31-.74,1.7-1.35,3.45-2.08,5.15-.48,1.11-1.15,2.27-2.6,1.66-1.34-.56-1.34-1.78-.84-3,2.4-5.95,4.6-11.99,7.8-17.59Z"/>
  <path class="cls-13" d="M421.42,378.86c-.6,4.29-3.25,7.23-6.64,9.5-2.5,1.67-6.09.83-8.79-1.58-.85-.76-1.45-1.89-2.79-1.96.02-2.55.04-5.1.06-7.65.91,0,1.69.18,2.22,1.07.39.65.94,1.22,1.43,1.81,4.31,5.14,7.47,2.27,9.83-1.25.9-1.34,1.2-3.1,2.81-3.94.89,1.21,1.45,2.58,1.87,4Z"/>
  <path class="cls-13" d="M221.09,390.11c-6.81.51-10.3-1.64-12.94-8.1-1.13-2.78-2.41-5.53-2.99-8.51.23-1.22.69-2.34,1.37-3.38,1.38-.17,1.83.84,2.26,1.83.57,1.33,1.11,2.68,1.66,4.02,2.42,5.89,4.27,7.13,10.61,7.07.01,2.35.02,4.71.03,7.06Z"/>
  <path class="cls-10" d="M501.85,420.08c-.02-.97-.04-1.95-.06-2.92.14-.01.29-.02.43-.02,2.38,12.16,2.73,24.46,2.52,36.79-.02,1.14-.21,2.24-1.57,2.44-1.33.2-2.01-.81-2.34-1.83-.97-2.99-1.1-6.12-1.33-9.23.29-.82-.69-2.28.66-2.45,2-.26,1.77-1.6,1.66-2.76-.39-3.93-.29-7.92-1.14-11.81.05-.78-.19-2,.2-2.25,2.61-1.69,1.38-3.87.98-5.96Z"/>
  <path class="cls-8" d="M174.47,554.67c-.46,4.21-1.24,8.41.27,12.59.2.54.83,1.34-.05,1.8-.75.4-1.62.19-2.05-.59-3.67-6.63-8.65-12.39-12.45-18.92-.14-.24-.12-.57-.17-.85,1.22.05,2.2.72,3.17,1.31,1.65.99,3.15,2.28,5.22,2.19,1.67-.07,3.01.35,3.82,1.99.58,1.17,1.09.93,1.34-.24l.91.05c0,.23,0,.45,0,.68Z"/>
  <path class="cls-2" d="M225.21,263.22c-9.33-4.96-19.03-8.92-29.47-10.86-2.09-.39-4.22-.58-6.33-.87-.01-.91-.03-1.82-.04-2.73,8.75.5,16.99,3.06,25.08,6.19,4.18,1.62,8.18,3.6,12.04,5.88-.83.57-1.15,1.43-1.28,2.38Z"/>
  <path class="cls-12" d="M477.2,360.7c-2.71,3.2-6.95,4.58-9.48,8.02-.62.84-1.7,1.36-1.7,2.6-1.81-1.32-3.36-2.9-4.7-4.7,2.79-4.64,6.93-7.83,11.41-10.65,1.68,1.4,3.22,2.93,4.47,4.74Z"/>
  <path class="cls-3" d="M452.55,316.82c-1.23-2.32.02-3.81,1.77-5.06.86-.62,1.83-1.07,2.31-2.1,7.54-6.53,15.97-11.64,25.08-15.66,1.99,1.53,2.05,2.68.06,3.42-10.71,3.97-19.77,10.41-27.79,18.43-.4.4-.94.65-1.42.97Z"/>
  <path class="cls-1" d="M141.41,294.42c1.07-3.08,3.9-4.88,7.32-4.65.64.04,1.29.52,1.91-.06,0,0-.03-.03-.03-.03-.19.6.36.56.64.74.94.29,1.76,1.39,2.89.44,4.62.21,8.92-1.39,13.31-2.45.61,1.2,1.21,2.41,1.82,3.61-7.75,1.36-15.49,2.75-23.41,2.37-.86-.04-1.57.14-1.67,1.18-1.06-.05-1.88-.69-2.78-1.15Z"/>
  <path class="cls-1" d="M454.27,358.98c-2.28-.98-3.82-2.79-5.3-4.67,1.34-.05,2.06-1.08,2.78-1.95,2.38-2.9,3.77-6.31,4.88-9.85,1.64,1.27,3.79,1.95,4.73,4.04.17,1.76-.55,3.27-1.49,4.64-1.8,2.64-3.73,5.2-5.6,7.8Z"/>
  <path class="cls-1" d="M186.42,332.47c.01,2.5,0,5,.04,7.5.02,1.36.03,2.76,1.77,3.19-1.2,2.09-3.49,2.98-5.12,4.63-1.24,1.26-1.56-.39-1.86-1.15-1.34-3.42-1.92-7.03-2.47-10.65,2.32-1.66,4.92-2.72,7.63-3.52Z"/>
  <path class="cls-13" d="M462.31,279.57c1.38.59,2.57,2.89,4.27.45.27-.27.79-.35.64-.91,0,0-.03.04-.03.04.73.34,1.31-.11,1.87-.44,3.86-2.21,7.74-1.31,11.63-.14-.05,1.04-.68,1.48-1.63,1.77-5.48,1.67-10.93,3.42-16.41,5.07-1.11.33-2.32.42-3.37-.38.74-1.97,1.84-3.74,3.03-5.46Z"/>
  <path class="cls-5" d="M136.66,374.89c1.85,5.23,5.74,8.55,10.45,11.11-.77,1.69-2.51,2.78-2.95,4.68-.74.03-1.23-.41-1.75-.86-3.12-2.66-6.26-5.29-9.4-7.94.78-2.56,2.31-4.72,3.65-6.99Z"/>
  <path class="cls-9" d="M144.19,295.56c.1-1.04.81-1.22,1.67-1.18,7.92.38,15.67-1,23.41-2.37.64.87,1.18,1.8,1.39,2.88-.41.22-.8.56-1.23.64-5.1.92-10.21,1.84-15.43,1.78-1.34-.01-2.72-.19-3.95.59-2.26-.02-3.9-1.58-5.86-2.35Z"/>
  <path class="cls-11" d="M150.04,297.91c1.23-.78,2.61-.6,3.95-.59,5.22.06,10.32-.87,15.43-1.78.43-.08.82-.42,1.23-.64,1.27,1.34,1.52,3.19,2.37,4.74-5.69.66-11.39,1.2-17.12,1.2-2.51.13-4.28-1.21-5.86-2.94Z"/>
  <path class="cls-10" d="M472.73,355.97c-4.48,2.82-8.62,6.02-11.41,10.65-3.47-3.5-3.37-3.71-.12-7.29,2.36-2.6,5.04-5.06,6.02-8.65,2.02,1.58,3.83,3.37,5.51,5.29Z"/>
  <path class="cls-14" d="M150.04,297.91c1.58,1.72,3.35,3.07,5.86,2.94.36,2.01,2.25,2.58,3.6,3.47,4.32,2.84,7.76,6.65,11.62,9.99.97.84.46,1.51.11,2.28-6.82-6.45-14.02-12.38-22.53-16.51-1.93-.94-3.82-1.95-5.91-2.51-1.73-.46-2.58-1.38-1.39-3.15.9.45,1.71,1.1,2.78,1.15,1.96.76,3.6,2.33,5.86,2.35Z"/>
  <path class="cls-13" d="M456.63,342.5c-1.11,3.54-2.5,6.95-4.88,9.85-.72.87-1.44,1.9-2.78,1.95-1.27-1.3-3.17-1.86-4.11-3.54,3.57-1.31,4.68-4.53,6-7.63.46-1.08.1-2.62,1.58-3.2,1.4.85,2.8,1.7,4.2,2.55Z"/>
  <path class="cls-7" d="M125.97,400.11c.16,3.47-1.19,6.68-2,9.92-.76,3.02.38,4.43,2.64,5.57,1.29.65,2.7,1.03,4.06,1.53-.22,2.72-2.59,4.77-2.36,7.62-2.68.19-4.06-2.46-6.43-2.95-.12-2.01,1.06-3.93.42-5.97,0,0,.03.08.03.08,1.04-.63.83-1.43.33-2.28.65-4.62,1.72-9.14,3.32-13.53Z"/>
  <path class="cls-9" d="M141.24,394.8c-.7,1.91-1.76,3.63-2.9,5.3-2.36-2.52-5.01-4.72-7.7-6.89-.83-.67-1.51-.69-2.33-.16.35-2.13,1.27-4.04,2.21-5.95,1.5.26,2.48,1.42,3.72,2.13,2.62,1.5,4.11,4.4,6.99,5.56Z"/>
  <path class="cls-7" d="M128.32,393.06c.82-.53,1.5-.51,2.33.16,2.69,2.16,5.33,4.36,7.7,6.89-.95,1.98-1.44,4.19-2.94,5.9-2.35-3.23-4.46-6.74-8.82-7.66-.05-.66.06-1.27.5-1.78.74-.41.67-1.1.62-1.78,0,0,0,.02,0,.02.58-.31.62-.82.51-1.39-.04-.14,0-.26.11-.35Z"/>
  <path class="cls-9" d="M498.33,400.69c-.36-.55-.86-1.06-1.06-1.67-.53-1.65-1.5-1.49-2.66-.78-1.74,1.07-3.22,2.37-4.32,4.15-.53.86-.86,1.99-1.99,2.39-1.19-1.58-2.19-3.23-2.34-5.27,2-3.99,5.57-5.9,9.58-7.21,0,0-.03.05-.03.06-.13.53-.05.98.47,1.27.93,2.3,2.24,4.48,2.35,7.06Z"/>
  <path class="cls-11" d="M141.24,394.8c-2.88-1.16-4.37-4.06-6.99-5.56-1.24-.71-2.21-1.88-3.72-2.13.67-1.81,1.28-3.66,2.47-5.23,3.13,2.64,6.28,5.28,9.4,7.94.52.44,1.01.89,1.75.86-.97,1.38-1.94,2.75-2.91,4.13Z"/>
  <path class="cls-14" d="M172.59,317.38c2.28-1.42,4.56-2.84,6.85-4.26,1.52,3.54,3.5,6.89,4.31,10.72.25,1.16.33,2.21-.94,2.69-1.43.54-2.17-.41-2.66-1.57-.53-1.25-.97-2.55-1.53-3.79-.57-1.26-.5-3.27-3.04-1.69-1.31.81-2.3-.91-2.99-2.1Z"/>
  <path class="cls-13" d="M149.38,285.17c.26-.45.65-.7,1.17-.76,4.37-.51,8.56-1.66,12.53-3.57,1.31,1.07,1.78,2.61,2.31,4.12-4.07,2.17-8.63,2.56-13.02,3.56-.66-1.42-2.62-1.68-2.99-3.35Z"/>
  <path class="cls-5" d="M480.65,390.78c3.03-3.41,7.49-4.9,10.72-8.04,1.31,1.4,1.95,3.12,2.4,4.94-1.08.14-1.92.82-2.87,1.26-3.17,1.44-5.27,4.4-8.42,5.84-.61-1.33-1.22-2.67-1.83-4Z"/>
  <path class="cls-11" d="M482.48,394.79c3.16-1.44,5.25-4.4,8.42-5.84.95-.43,1.79-1.12,2.87-1.26.88,1.43,1.59,2.93,1.77,4.62-4.02,1.31-7.58,3.22-9.58,7.21-2.2-.81-2.5-3.02-3.48-4.73Z"/>
  <path class="cls-8" d="M454.27,358.98c1.87-2.6,3.8-5.16,5.6-7.8.93-1.37,1.65-2.88,1.49-4.64,2.08-.08,2.88,1.75,4.18,2.82-2.08,3.25-3.77,6.73-6.25,9.74-2.39,2.9-2.52,2.99-5.02-.12Z"/>
  <path class="cls-14" d="M500.67,428.29c.85,3.89.75,7.87,1.14,11.81.12,1.17.35,2.51-1.66,2.76-1.34.17-.37,1.63-.66,2.45-1.8-.93-1.15-2.83-1.34-4.17-.56-3.93-1.4-7.79-2.17-11.68,1.43-.4,1.59.93,2.33,2.25v-3.42h2.35Z"/>
  <path class="cls-7" d="M459.29,285.04c1.05.79,2.26.71,3.37.38,5.48-1.65,10.94-3.4,16.41-5.07.95-.29,1.57-.73,1.63-1.77.39.15.78.3,1.17.45.06.43.55.91-.04,1.27-2.91,1.78-5.83,3.53-8.75,5.29-2.84-.29-5.23,1.28-7.85,1.89-2.47.58-4.9,1.96-7.48.37.07-1.18.87-1.96,1.54-2.8Z"/>
  <path class="cls-9" d="M468.95,292.61c-1.59,1.67-3.91,1.44-5.86,2.2-2.41.94-4.99,1.42-7.48,2.16-.95.28-1.85.66-2.61-.35.8-2.01,1.69-3.97,3.05-5.68.28,1.87,1.34,1.61,2.78,1.25,3.55-.9,6.93-2.57,10.71-2.5-.2.98-.39,1.95-.59,2.93Z"/>
  <path class="cls-13" d="M437.88,332.52c-2.64,2.39-3.85,5.54-4.77,8.86-1.81-1.31-3.79-2.41-5.29-4.12-.08-1.11.36-2.05.96-2.93.97-1.42,1.97-2.82,2-4.64,2.46.7,4.82,1.66,7.09,2.84Z"/>
  <path class="cls-10" d="M468.95,292.61c.2-.98.39-1.95.59-2.93,1.18-1.37,2.35-2.73,3.53-4.1,2.92-1.76,5.84-3.51,8.75-5.29.59-.36.1-.84.04-1.27.65.15,1.35.2,1.94.46.93.42,1.63,1.14,1.4,2.27-.2,1.03-1.1,1.1-1.95,1.41-4.57,1.67-8.77,3.91-11.23,8.42-1.03.34-2.05.68-3.08,1.02Z"/>
  <path class="cls-1" d="M430.79,329.69c-.03,1.82-1.04,3.22-2,4.64-.6.88-1.04,1.83-.96,2.93-1.64-.81-3.02-2.04-4.56-2.97-2.28-1.38-2.25-2.76-.76-4.65.51-.65,1.22-1.27,1.24-2.23,2.45.44,4.78,1.28,7.05,2.28Z"/>
  <path class="cls-14" d="M174.1,492.89c-1.82,11.49-1.94,23.08-1.89,34.67-.32-.02-.64-.03-.95-.05-.81-6.64-.86-13.29,0-19.93.07-.06.21-.13.2-.17-.04-.15-.12-.29-.19-.44-.01-.78-.03-1.56-.04-2.34l.59-1.16c.41-.21.38-.41-.02-.6-.41-2.78.75-5.44.59-8.21.68-.42.54-1.13.62-1.77.37,0,.73,0,1.1,0Z"/>
  <path class="cls-1" d="M473.07,285.58c-1.18,1.37-2.35,2.73-3.53,4.1-3.78-.07-7.16,1.61-10.71,2.5-1.44.36-2.5.62-2.78-1.25.39-1.13.86-2.21,1.68-3.09,2.58,1.59,5.01.21,7.48-.37,2.62-.61,5.01-2.18,7.85-1.89Z"/>
  <path class="cls-14" d="M189.37,248.77c.01.91.03,1.82.04,2.73-4.73-.48-9.47-.72-14.22-.57-1.62.05-2.33-.73-2.24-2.31,2.77-.61,5.48-.72,8.33-.16,2.63.52,5.41-.4,8.09.31Z"/>
  <path class="cls-7" d="M152.37,288.52c4.39-1,8.95-1.39,13.02-3.56.68,1.15,1.37,2.3,2.05,3.45-4.39,1.06-8.68,2.66-13.31,2.45-.59-.78-1.18-1.56-1.77-2.34Z"/>
  <path class="cls-10" d="M152.37,288.52c.59.78,1.18,1.56,1.77,2.34-1.13.95-1.95-.15-2.89-.44.07-.5-.11-.77-.64-.74,0,0,.03.03.03.03-2.43-3.43-5.89-5.36-9.77-6.63-1.52-.49-3.08-.81-1.38-2.81,3.77.68,6.52,3.42,9.89,4.91.38,1.67,2.34,1.93,2.99,3.35Z"/>
  <path class="cls-13" d="M155.35,267.35c-.79.45-1.63.67-2.54.63-2.1-2.22-3.35-5-5.01-7.52-.48-.73-1.25-1.66-.02-2.54,1.54-1.1,1.7.57,2.41,1.14,1.72,2.76,3.43,5.52,5.15,8.28Z"/>
  <path class="cls-14" d="M174.47,553.99c-.3-.02-.61-.03-.91-.05-.23-1.36.48-2.84-.58-4.08-.21-1.97.45-4.04-.7-5.89-.87-3.47,0-7.1-.99-10.56,0-1.16,0-2.32,0-3.48l.97-.05c.74,8.04,1.47,16.08,2.21,24.12Z"/>
  <path class="cls-14" d="M412.57,354.26c-.21-.54-.4-1.1-.64-1.62-.9-1.93-2.06-3.08-4.16-1.34.06-1.24.12-2.49.19-3.73.06-.96.45-1.71,1.48-1.84,1-.13,1.78.4,1.97,1.33.49,2.39,1.56,4.69,1.16,7.22Z"/>
  <path class="cls-11" d="M225.21,263.22c.13-.95.45-1.8,1.28-2.38,2.62.92,4.95,2.33,7.08,4.11-3.49,2.83-5.63-.87-8.35-1.73Z"/>
  <path class="cls-10" d="M498.31,428.29v3.42c-.74-1.32-.9-2.64-2.33-2.25-.11-.1-.14-.21-.08-.35-.15-.27-.29-.54-.44-.81-.05-.39-.11-.78-.16-1.16.5-.03.99-.11,1.25-.62,1.12.05,1.71.64,1.76,1.76Z"/>
  <path class="cls-11" d="M486.04,456.48c-1.38-.13-1.17-1.17-1.25-2.1-.09-1.08.42-2.28-.58-3.2.23-.45.64-.57,1.1-.58.6,1.91.74,3.88.73,5.87Z"/>
  <path class="cls-9" d="M501.41,413.54c-1.23-1.78-1.32-3.81-1.26-5.87.98,1.84,1.16,3.85,1.26,5.87Z"/>
  <path class="cls-10" d="M174.1,492.89c-.37,0-.73,0-1.1,0,.17-.8.35-1.59.53-2.39.35,0,.7-.01,1.04-.02.18.87-.18,1.63-.47,2.4Z"/>
  <path class="cls-8" d="M172.27,529.87c-.32.02-.65.04-.98.05-.02-.8-.03-1.61-.04-2.41.32.02.64.03.95.05.02.77.04,1.54.07,2.31Z"/>
  <path class="cls-3" d="M449.65,488.45c.36.11.73.21,1.09.32,0,.82.06,1.69-1.12,1.77-.2-.7-1.08-1.4.02-2.09Z"/>
  <path class="cls-10" d="M315.02,277.92c-.71-.61-.68-1.19.06-1.75.36.6.31,1.18-.06,1.75Z"/>
  <path class="cls-10" d="M316.21,247.38c-.72-.61-.69-1.2.07-1.75.37.6.3,1.18-.07,1.75Z"/>
  <path class="cls-10" d="M309.77,296.14c.75.55.78,1.14.07,1.75-.37-.57-.44-1.15-.07-1.75Z"/>
  <path class="cls-10" d="M308.59,265.59c.76.55.79,1.14.07,1.75-.37-.57-.44-1.15-.07-1.75Z"/>
  <path class="cls-10" d="M316.8,232.11c-.72-.61-.69-1.2.06-1.75.36.6.31,1.18-.06,1.75Z"/>
  <path class="cls-3" d="M450.16,486.42c-.04.54-.07,1.07-.11,1.61-1.63.02-1.68-.76-.98-1.92.36.1.72.21,1.09.31Z"/>
  <path class="cls-10" d="M309.18,280.87c.75.55.78,1.14.07,1.75-.36-.57-.44-1.15-.07-1.75Z"/>
  <path class="cls-10" d="M315.61,262.65c-.71-.61-.69-1.2.07-1.75.36.6.29,1.18-.07,1.75Z"/>
  <path class="cls-8" d="M220.6,366.01c-1.07-.8-.61-1.93-.63-2.96.7.88.65,1.92.63,2.96Z"/>
  <path class="cls-10" d="M307.44,235.65c.58.36.63.75.05,1.16-.31-.37-.36-.76-.05-1.16Z"/>
  <path class="cls-9" d="M500.17,407.7c-.98-.6-.64-1.53-.61-2.38.65.68.58,1.55.61,2.38Z"/>
  <path class="cls-9" d="M502.21,417.13c-.14,0-.29.01-.43.02-.17-.4-.33-.81-.5-1.21.21,0,.43-.02.64-.02.35.34.41.76.28,1.21Z"/>
  <path class="cls-10" d="M501.93,415.92c-.21,0-.43.02-.64.02.03-.81.05-1.62.07-2.43.64.7.48,1.58.56,2.41Z"/>
  <path class="cls-8" d="M122.65,413.64c.5.85.71,1.65-.33,2.28.11-.76.22-1.52.33-2.28Z"/>
  <path class="cls-9" d="M499.59,405.35c-.99-.58-.64-1.52-.63-2.37.66.67.6,1.53.63,2.37Z"/>
  <path class="cls-8" d="M219.98,363.09c-.91-.62-.63-1.53-.6-2.38.65.68.61,1.54.6,2.38Z"/>
  <path class="cls-10" d="M306.22,230.15c.11-.36.21-.83.68-.76.51.08.51.46.23.84-.3-.03-.61-.06-.91-.09Z"/>
  <path class="cls-10" d="M316.91,228.8c.03-.46-.13-1.07.58-1.06.18,0,.35.57.52.88-.37.06-.73.12-1.1.17Z"/>
  <path class="cls-10" d="M308.03,250.92c.58.36.62.75.05,1.16-.31-.37-.36-.76-.05-1.16Z"/>
  <path class="cls-8" d="M219.4,360.74c-.92-.61-.63-1.54-.63-2.39.64.69.65,1.54.63,2.39Z"/>
  <path class="cls-10" d="M411.47,329.03c.72.03,1.07.42,1.12,1.12-.64-.1-1.06-.43-1.12-1.12Z"/>
  <path class="cls-9" d="M127.71,394.78c.05.68.12,1.37-.62,1.78.02-.66.05-1.31.62-1.78Z"/>
  <path class="cls-8" d="M405.49,358.35c.1.7.14,1.37-.54,1.84-.03-.68-.05-1.35.54-1.84Z"/>
  <path class="cls-9" d="M498.97,403.01c-.82-.47-.65-1.22-.56-1.95.53.55.58,1.24.56,1.95Z"/>
  <path class="cls-14" d="M407.16,352.9c.14.58.06,1.07-.49,1.41-.06-.55.06-1.03.49-1.41Z"/>
  <path class="cls-14" d="M407.79,351.28c.12.55,0,.99-.52,1.28-.05-.52.01-.99.52-1.28Z"/>
  <path class="cls-14" d="M405.99,356.44c.02.45.04.89.06,1.34-.17.02-.35.03-.52.03-.03-.52.04-1,.47-1.37Z"/>
  <path class="cls-11" d="M495.98,393.63c-.52-.29-.61-.74-.47-1.27.47.31.54.76.47,1.27Z"/>
  <path class="cls-9" d="M128.21,393.41c.11.57.07,1.08-.51,1.39-.02-.53.08-1.02.51-1.39Z"/>
  <path class="cls-8" d="M204.08,376c.01.49-.09.93-.55,1.2-.02-.49.14-.91.55-1.2Z"/>
  <path class="cls-14" d="M406.56,354.66c.15.57.07,1.07-.47,1.42-.06-.54.04-1.03.47-1.42Z"/>
  <path class="cls-8" d="M405.53,357.81c.18,0,.35,0,.52-.03-.19.2-.39.4-.58.6.02-.19.04-.38.06-.57Z"/>
  <path class="cls-7" d="M126.57,398.39c-.12.17-.24.34-.36.51.12-.17.24-.34.36-.51Z"/>
  <path class="cls-8" d="M424.21,384.23c-.14-.24-.29-.48-.43-.72.14.24.29.48.43.72Z"/>
  <path class="cls-3" d="M495.47,428.31c.15.27.29.54.44.81-.15-.27-.29-.54-.44-.81Z"/>
  <path class="cls-8" d="M203.42,377.51c-.15.29-.29.57-.44.86.15-.29.29-.57.44-.86Z"/>
  <path class="cls-5" d="M296.86,193.36c2.49-6.13,4.97-12.25,7.42-18.3.79.03.78.43.79.81.17,5.17.24,10.33.47,15.5.45,10.23.52,20.47,1.29,30.69.15,2-2.08,2.5-2.35,4.17-3.29-.56-5.2-2.96-5.21-7.53-.01-6.91-1.21-13.74-1.28-20.64-.02-1.58-.22-3.27-1.14-4.7Z"/>
  <path class="cls-5" d="M320.97,226.82c-3.44-3.97-3.52-8.42-3.2-13.53.46-7.27.94-14.6.78-21.91-.13-5.77,1.08-11.46,1.14-17.42,2.57,6.27,5.14,12.55,7.7,18.82-1.47,1.41-1.49,3.35-1.71,5.13-.98,7.89-1.77,15.79-1.89,23.75-.03,1.97-.16,4.41-2.83,5.17Z"/>
  <path class="cls-12" d="M320.97,226.82c2.68-.76,2.8-3.2,2.83-5.17.11-7.97.9-15.87,1.89-23.75.22-1.77.24-3.72,1.71-5.13,3.94,9.17,7.88,18.34,11.79,27.53.28.65.95,1.48.13,2.13-.75.6-1.49-.06-2.13-.43-1.78-1.03-3.26-2.42-4.72-3.88-1.85-1.84-2.8-1.61-3.73.87-.99,2.63-1.54,5.42-3.24,7.77-1.81,2.49-2.45,2.54-4.53.06Z"/>
  <path class="cls-5" d="M251.03,219.27c-2.16-2.1-2.9-5.02-4.27-7.57-1.79-3.33-3.4-6.76-4.62-10.77,3.06,1.54,6.13,3.03,9.16,4.61,6.73,3.52,13.44,7.09,20.16,10.65.93.49,2.04.76,2.57,1.83-2.02,1.51-3.99,3.18-6.78,2.78-2.79-.41-5.51-1.09-8.13-2.15-2.81-1.14-5.45-.39-8.09.63Z"/>
  <path class="cls-11" d="M251.03,219.27c2.63-1.02,5.28-1.76,8.09-.63,2.62,1.06,5.34,1.75,8.13,2.15,2.79.41,4.76-1.27,6.78-2.78.92-.09,1.79.18,2.48.71,1.28.99,3.82.75,3.72,3.02-.14,3-2.43,4.86-5.57,5.11-1.02.08-2.17-.4-3.02.58-1.16,0-2.29-.09-3.43-.45-5-1.55-10.04-2.92-15.36-2.51-.2-1.87-1.91-3.23-1.8-5.21Z"/>
  <path class="cls-2" d="M349.72,216.26c3.15-1.74,6.29-3.49,9.44-5.23,1.66,5.09,2.79,5.74,7.77,4.53,2.45-.59,4.92-1.12,7.47-1.05-.98,1.96-1.96,3.91-2.94,5.87-3.84-.18-7.03,1.94-10.48,3.07-2.39.78-4.44.42-6.29-.95-2.18-1.61-3.93-3.66-4.96-6.23Z"/>
  <path class="cls-12" d="M296.86,193.36c.92,1.44,1.12,3.12,1.14,4.7.07,6.9,1.27,13.73,1.28,20.64,0,4.57,1.92,6.97,5.21,7.53-1.22,2.99-3.28,4.16-6.43,2.97-2.36-5.19-2.49-10.87-3.55-16.34-.4-2.08-.78-4.25-2.94-5.41,0-4.22,2.8-7.46,3.95-11.29.29-.98.89-1.87,1.35-2.8Z"/>
  <path class="cls-6" d="M374.39,214.51c-2.55-.07-5.02.46-7.47,1.05-4.99,1.21-6.11.56-7.77-4.53,7.25-3.74,14.5-7.47,21.75-11.21.2.16.4.33.6.49-2.37,4.73-4.74,9.47-7.11,14.2Z"/>
  <path class="cls-14" d="M291.56,207.46c2.16,1.16,2.53,3.33,2.94,5.41,1.06,5.48,1.19,11.15,3.55,16.34-.18,1.27-.86,1.22-1.54.45-1.29-1.45-2.53-2.96-3.7-4.51-1.46-1.95-2.95-2.48-4.72-.4-.25.3-.52.6-.84.82-1.2.8-2.7,2.32-3.83,1.55-1.44-.98.1-2.61.59-3.86,1.75-4.44,3.58-8.85,5.47-13.24.43-1,.58-2.38,2.08-2.57Z"/>
  <path class="cls-11" d="M349.72,216.26c1.03,2.57,2.78,4.62,4.96,6.23,1.86,1.38,3.9,1.73,6.29.95,3.45-1.13,6.64-3.25,10.48-3.07-.05,1.44-1.1,2.39-1.75,3.53-2.84-.16-4.91,1.72-7.27,2.79-3.12,1.42-6.22,2.82-9.77,2.5-1.1-2.28-3.53-2.49-5.46-3.44-1.29-.63-4.01-4.76-3.74-6.07.13-.64.67-.92,1.21-1.17,1.69-.75,3.19-1.9,5.05-2.27Z"/>
  <path class="cls-4" d="M290.41,243.28c-4.59,4.54-10.02,7.66-16.17,9.58-.74.23-1.55.73-2.22.16-.92-.78-.09-1.68.22-2.39,1.43-3.3,2.53-6.76,4.57-9.78,3.58.86,7.23.64,10.86.65,1.31,0,2.58,0,2.73,1.76Z"/>
  <path class="cls-4" d="M347.44,240.3c1.94,2.85,2.95,6.13,4.28,9.26.4.96.76,2.26-.97,1.78-7.16-1.99-13.51-5.45-18.6-10.99-.12-.13-.13-.36-.18-.55,2.99-.11,5.94.28,8.91.47,2.17.14,4.38,1.25,6.56.04Z"/>
  <path class="cls-15" d="M272.9,238.58c-.98,4.49-3.23,8.5-4.97,12.7-.6,1.44-1.28,1.64-2,.06-1.85-4.05-4.29-7.84-5.58-12.15,4.1-1.87,8.3-1.79,12.55-.6Z"/>
  <path class="cls-1" d="M343.85,230.95c.59,1.57,1.17,3.13,1.76,4.7-3.32.09-6.56-.65-9.83-.96-2.62-.25-5.45-1.12-7.83.99-1.54-.72-2.44-1.95-2.9-3.55,2.04-1.23,3.94-2.78,6.47-2.95.59,0,1.18,0,1.76,0,3.59.18,6.92,1.93,10.57,1.77Z"/>
  <path class="cls-9" d="M252.83,224.48c5.32-.42,10.37.95,15.36,2.51,1.15.36,2.27.44,3.43.45.76,1.05,2.05,1.03,3.07,1.54,1.41.71,2.29,1.57,1.03,3.15-6.63-1.05-13.16-2.95-19.99-2.34-1.36-1.55-1.92-3.55-2.92-5.31Z"/>
  <path class="cls-9" d="M352.66,229.19c3.55.32,6.65-1.08,9.77-2.5,2.36-1.07,4.43-2.96,7.27-2.79-.77,2.55-1.99,4.88-3.5,7.06-5.59,1.51-11.17,3.02-17.06,2.34-1.18-1.62-.77-2.61,1.12-3.24.8-.27,1.82,0,2.41-.86Z"/>
  <path class="cls-13" d="M327.95,235.67c2.38-2.1,5.21-1.24,7.83-.99,3.28.31,6.51,1.05,9.83.96.64,1.54,1.81,2.87,1.83,4.65-2.18,1.22-4.4.1-6.56-.04-2.97-.19-5.93-.58-8.91-.47-1.95-.78-3.26-2.17-4.01-4.12Z"/>
  <path class="cls-13" d="M290.41,243.28c-.15-1.77-1.42-1.76-2.73-1.76-3.63,0-7.28.21-10.86-.65.3-1.67.63-3.33,1.84-4.64,2.32,1.14,4.79.47,7.19.57,3.2.14,6.38.3,9.31,1.79-1.38,1.77-2.87,3.43-4.74,4.7Z"/>
  <path class="cls-7" d="M272.9,238.58c-4.25-1.19-8.44-1.26-12.55.6-1.59-1.16-1.73-3.03-2.28-4.69.44-.89,1.18-1.18,2.15-1.2,4.87-.12,9.63.6,14.34,1.77-.84,1.04-.17,2.78-1.66,3.52Z"/>
  <path class="cls-1" d="M295.15,238.59c-2.93-1.49-6.11-1.65-9.31-1.79-2.4-.1-4.87.57-7.19-.57.28-2.27,1.55-3.11,3.82-2.96,4.08.28,8.19-1.49,12.28.9,3.12,1.82,3.36,1.95.39,4.42Z"/>
  <path class="cls-1" d="M274.56,235.06c-4.71-1.18-9.47-1.89-14.34-1.77-.96.02-1.71.31-2.15,1.2-1.13-1.39-1.88-2.97-2.33-4.7,6.82-.61,13.36,1.29,19.99,2.34-.26,1.03-.38,2.12-1.17,2.94Z"/>
  <path class="cls-7" d="M349.14,233.3c5.89.69,11.48-.82,17.06-2.34-.55,1.87-.96,3.81-2.39,5.28-3.59.15-7.15.9-10.77.6-.76-.06-1.59-.15-2.16.58-1.18-1.12-1.32-2.68-1.75-4.13Z"/>
  <path class="cls-4" d="M360.92,242.14c-1.03,2.4-2.03,4.81-3.1,7.18-.26.57-.41,1.46-1.27,1.39-.62-.06-.78-.76-.98-1.31-.95-2.63-2.53-5.02-2.95-7.84,2.83-.76,5.67-1.51,8.3.59Z"/>
  <path class="cls-13" d="M360.92,242.14c-2.63-2.1-5.46-1.35-8.3-.59-1.13-1.14-1.32-2.68-1.74-4.12.57-.73,1.4-.65,2.16-.58,3.62.3,7.18-.45,10.77-.6-.61,2.14-1.57,4.1-2.89,5.89Z"/>
  <path class="cls-10" d="M343.85,230.95c-3.65.16-6.98-1.59-10.57-1.77-.8-3.22,0-4.05,3.26-3.32.47.11.93.34,1.4.37,3.11.16,5.22,1.54,5.91,4.72Z"/>
  <path class="cls-10" d="M331.52,229.18c-2.53.16-4.43,1.71-6.47,2.95-.91-.48-1.42-1.05-.58-2.05.75-.89,1.39-1.88,2.17-2.74.84-.93,1.7-2.08,3.2-1.53,1.55.57,1.79,1.91,1.68,3.37Z"/>
  <path class="cls-2" d="M302.18,567.49c-.52,6.06-2.5,11.5-6.83,15.92-.81.83-1.73,1.58-2.44,2.5-1.09,1.41-1.21,2.81.92,3.22,1.49.29,1.93,1.09,1.9,2.41-4.53,2.03-9.36,1.72-14.15,1.78-1.86-1.59-1.91-3.66-1.66-5.87.97-8.53,2.97-16.78,6.38-24.68,4.17,1.19,8.27,2.63,12.62,3.19,1.11.14,2.65,0,3.24,1.52Z"/>
  <path class="cls-5" d="M320.91,589.19c.27-1.66-.35-2.87-1.43-4.2-3.12-3.86-5.84-8-7.34-12.81,4.78-3.19,10.12-5.37,15.09-8.21.72-.41,1.68-.41,2.53-.6,2.89,9.05,3.52,18.25,1.75,27.6-3.64.02-7.24-.16-10.61-1.77Z"/>
  <path class="cls-2" d="M329.77,563.36c-.85.19-1.81.19-2.53.6-4.98,2.84-10.31,5.02-15.09,8.21-1.53-3.41-3.21-6.77-3.55-10.58,5.62-1.29,10.96-3.45,16.43-5.18.78-.25,1.48-.48,1.79-1.32,1.28,2.65,3.02,5.13,2.95,8.26Z"/>
  <path class="cls-14" d="M326.23,600.36c-1.47,2.74-2.92,5.49-4.4,8.22-1.59,2.92-4.76,2.01-7.18,2.91-.51.19-1.16.01-1.74.04-5.44.24-5.48.22-3.64-5.14.78-2.27,1.38-4.64,2.87-6.61,4.7.05,9.42-.28,14.1.58Z"/>
  <path class="cls-12" d="M281.58,593.33c4.78-.06,9.61.25,14.15-1.78,1.63,3.55,2.36,7.33,2.9,11.17-1.16.09-2.35.06-3.47.3-2.93.64-5.75,1.9-8.85,1.45-1.58-3.71-3.15-7.42-4.73-11.14Z"/>
  <path class="cls-12" d="M326.23,600.36c-4.67-.86-9.39-.53-14.1-.58.87-3.81,3.48-6.63,5.54-9.77.79-1.2,2.11-.69,3.23-.82,3.37,1.61,6.97,1.79,10.61,1.77.15,2.54-2.52,3.49-3.18,5.63-.42,1.34-1.38,2.52-2.1,3.77Z"/>
  <path class="cls-12" d="M302.18,567.49c-.6-1.51-2.14-1.37-3.24-1.52-4.35-.56-8.45-2-12.62-3.19,1.34-2.58,2.08-6.04,4.2-7.48,2.07-1.42,5.19.9,7.88,1.45,5.07,1.03,5.08,1.08,4.38,6.54-.18,1.4.51,2.93-.59,4.2Z"/>
  <path class="cls-14" d="M286.31,604.47c3.11.45,5.92-.81,8.85-1.45,1.12-.25,2.31-.21,3.47-.3,1.16,3.33,1.33,6.77,1.1,10.24-.07,1.12-.7,1.78-1.96,2.17-6.43,1.99-6.88,1.81-9.11-4.4-.75-2.1-1.57-4.17-2.36-6.26Z"/>
  <path class="cls-9" d="M323.3,549.85c1.38.19,1.55,1.29,1.76,2.35-4.52.73-8.86,2.45-13.52,2.35-5.45.93-10.68.13-15.75-2.02-2.98-1.26-3.09-1.94-.7-4.44,4.9,1.91,9.89,3.18,15.25,2.99,4.35-.16,8.62-1.01,12.95-1.24Z"/>
  <path class="cls-8" d="M323.3,549.85c-4.33.23-8.6,1.08-12.95,1.24-5.36.19-10.35-1.08-15.25-2.99.24-1.53.94-2.76,2.34-3.53,5.82,2.57,11.95,3.36,18.23,2.9,2.04-.15,4.31.14,5.88-1.74,1.1,1.15,2,2.39,1.75,4.11Z"/>
  <path class="cls-14" d="M311.55,554.56c4.66.1,9-1.62,13.52-2.35,1.78.24.89,2.1,1.75,2.9-.31.83-1.01,1.07-1.79,1.32-5.48,1.73-10.82,3.89-16.43,5.18-.33-.68-.72-1.34-.96-2.04-1.1-3.14-.99-3.34,2.28-3.81.82-.12,1.55-.15,1.64-1.19Z"/>
  <path class="cls-7" d="M306.86,644.42c-1.92,6.87-3.85,13.73-5.77,20.6-.19-.02-.39-.04-.58-.06-.63-6.06-1.26-12.12-1.89-18.18,2.65-1.13,5.45-1.72,8.25-2.36Z"/>
  <path class="cls-7" d="M321.56,545.74c-1.57,1.88-3.84,1.59-5.88,1.74-6.29.46-12.41-.33-18.23-2.9.49-1.72,1.71-2.93,2.95-4.11.45.5.81,1.27,1.37,1.47,5.88,2.08,11.89,2.82,18.06,1.45.91.54,1.65,1.21,1.73,2.36Z"/>
  <path class="cls-1" d="M306.86,644.42c-2.79.63-5.6,1.23-8.25,2.36-1.13-1.98-.92-4.29-1.58-6.39-.39-1.23.61-1.66,1.63-1.94,2.89-.77,5.94-.56,8.81-1.58,1.35-.48,2.02.58,1.53,1.89-.7,1.89-.98,3.95-2.15,5.65Z"/>
  <path class="cls-15" d="M303.25,537.5c1.18-2.8,3.81-4.33,5.73-6.46.89-.98,1.63-.12,2.14.55,2.12,2.76,4.72,5.15,6.36,8.28-5.03.94-9.73-.13-14.24-2.36Z"/>
  <path class="cls-13" d="M303.25,537.5c4.51,2.23,9.2,3.3,14.24,2.36,1.37.78,1.52,2.37,2.34,3.52-6.17,1.37-12.18.63-18.06-1.45-.56-.2-.92-.96-1.37-1.47.73-1.2,1.71-2.16,2.85-2.96Z"/>
  <path class="cls-5" d="M358.57,585.67c.95-9.2.73-18.4-.04-27.6.86.13,1.73.24,2.58.39,4.32.74,8.32,2.78,12.73,3.11,3.54,6.08,6.74,12.29,7.68,19.4-3.11-.03-6.14.56-9.18,1.12-1.05.2-2.18.05-2.68,1.3-1.95-.04-4.14-.57-4.67,2.29-2.14-.38-4.28,1.06-6.42,0Z"/>
  <path class="cls-5" d="M421.38,552.79c-.4,9.27-2.42,18.23-5.29,27.01-3.73.88-7.44,1.84-11.19,2.63-2.14.45-4.33.8-6.43-.28,5.42-9.39,9.85-19.2,12.74-29.67.13-.46.14-.96.21-1.44,3.49-.4,6.78.35,9.96,1.75Z"/>
  <path class="cls-2" d="M398.47,582.15c2.1,1.08,4.3.74,6.43.28,3.75-.79,7.46-1.74,11.19-2.63-.83,3.08-2.02,6.01-3.52,8.81-3.43-.2-6.61,1.43-10,1.44-3.14.01-6.22,1.47-9.39.32,1.76-2.74,3.52-5.49,5.28-8.23Z"/>
  <path class="cls-14" d="M393.19,590.38c3.17,1.15,6.25-.31,9.39-.32,3.39-.01,6.56-1.64,10-1.44-.17,4.79-3.94,5.16-7.32,5.79-7.11,1.33-14.38,1.91-21.3,4.19-3.89,1.28-3.96-2.31-5.44-4.11,2.15-.39,4.3-.79,6.45-1.18,2.61,3.25,3.63,3.18,6.06-.26.65-.93,1-2.14,2.17-2.67Z"/>
  <path class="cls-8" d="M387.9,612.7c-.5-1.03-1.09-2.03-1.5-3.1-.74-1.91-.07-3.29,1.91-3.79,4.31-1.08,8.43-2.85,12.85-3.5.86-.13,1.73-.15,2.6-.18,1.41-.05,2.15.49,1.35,1.92-1.45,2.6-2.62,5.39-4.86,7.48-4.27-1.22-8.35-.46-12.36,1.17Z"/>
  <path class="cls-2" d="M373.85,561.57c-4.42-.33-8.42-2.37-12.73-3.11-.86-.15-1.72-.26-2.58-.39-.7-1.9-.6-3.88-.6-5.86,1.32-1.12,2.66-.46,4.05-.14,2.4.55,4.49,2.27,7.13,1.89,1.82,2.38,3.62,4.78,4.74,7.6Z"/>
  <path class="cls-2" d="M369.67,583.39c.51-1.25,1.63-1.11,2.68-1.3,3.04-.57,6.07-1.16,9.18-1.12,1.79,2.02,1.62,4.67,2.26,7.06-2.9.77-6.13-.09-8.82,1.77-1.95-1.99-4.82-3.21-5.31-6.41Z"/>
  <path class="cls-1" d="M387.9,612.7c4-1.63,8.08-2.39,12.36-1.17-1.75,4.06-4.77,7.28-7.18,10.9-.67,1-1.34.84-1.77-.43-1.07-3.12-2.26-6.2-3.4-9.3Z"/>
  <path class="cls-14" d="M364.98,595.65c-.2,2.83-1.32,5.43-2.05,8.12-.57,2.1-3.84,3.88-5.84,3.41-1.06-.25-1.53-.82-1.24-2.13.64-2.91,1.04-5.87,1.53-8.81,2.58.39,5.05-.61,7.6-.59Z"/>
  <path class="cls-2" d="M364.98,595.65c-2.55-.03-5.02.98-7.6.59.67-3.49,1.16-7,1.19-10.56,2.14,1.07,4.28-.37,6.42,0,1.98,3.32-.04,6.64-.02,9.97Z"/>
  <path class="cls-13" d="M414.89,528.15c-.44-8.04-.86-16.09-2.13-24.09,3.09,6.56,5.46,13.32,6.3,20.55-1.65.87-1.9,3.4-4.17,3.54Z"/>
  <path class="cls-1" d="M414.89,528.15c2.27-.14,2.52-2.67,4.17-3.54,1.3,2.65,1.33,5.56,1.73,8.4.24,1.71-.29,3.02-1.76,3.94-1.95-.44-3.41,1.32-5.29,1.18,1.11-3.24-.07-6.74,1.15-9.97Z"/>
  <path class="cls-2" d="M421.38,552.79c-3.18-1.41-6.47-2.15-9.96-1.75.58-1.97,1.15-3.93,1.73-5.9,2.75-.89,5.49-.4,8.24.01,0,2.55,0,5.09,0,7.64Z"/>
  <path class="cls-14" d="M421.38,545.15c-2.74-.41-5.49-.9-8.24-.01.2-2.34.4-4.68.6-7.02,1.88.15,3.34-1.61,5.29-1.18,3.57,1.94,2.05,5.34,2.35,8.21Z"/>
  <path class="cls-11" d="M369.11,553.97c-2.64.38-4.73-1.34-7.13-1.89-1.39-.32-2.73-.98-4.05.14-.84-1.87-.95-3.88-1.15-5.88,2.15.19,4.31.39,6.46.58,1.99,2.32,4.33,4.35,5.87,7.05Z"/>
  <path class="cls-12" d="M374.98,589.8c2.68-1.86,5.91-1,8.82-1.77.72,1.69,1.18,3.43,1.16,5.28-2.15.39-4.3.79-6.45,1.18-1.18-1.56-2.35-3.13-3.53-4.69Z"/>
  <path class="cls-9" d="M363.24,546.93c-2.15-.19-4.31-.39-6.46-.58-.96-.7-.53-1.81-.76-2.72-.29-1.13-1.73-2.57-.47-3.34.97-.59,2.1,1.1,3.01,1.85,1.72,1.4,3.13,3.18,4.67,4.8Z"/>
  <path class="cls-5" d="M254.03,555.13c1.78,7.02,3.55,14.02,2.46,21.4-.38,2.58-.08,5.25-.16,7.88-.03,1.03.36,2.17-.55,3.05-2.84,1.13-5.46-.73-8.23-.61-.07-12-1.38-23.81-5.28-35.23,4.2.21,7.68,2.85,11.76,3.5Z"/>
  <path class="cls-2" d="M225.21,543.4c.38,4.43.99,8.85,1.06,13.29.06,4.15-.45,8.31-.72,12.46-.32,4.84-1.74,9.47-2.69,14.19-1.35.09-2.34-.65-3.44-1.3-2.3-1.37-3.87-3.77-6.55-4.57.2-3.13.4-6.26.6-9.39.73-.04,1.33-.31,1.61-1.03,2.17-5.66,4.8-11.14,6.13-17.14.54-2.41.67-5.57,3.99-6.49Z"/>
  <path class="cls-14" d="M212.88,532.83c-.88-1.97-.98-4.11-1.1-6.19-.11-1.97,1.99-3.42,4.09-3.1,3.75.58,7.42,1.39,11.01,2.68,5.95,2.15,11.94,4.2,17.98,6.07,2.38.73,3.58,2.29,4.25,4.4.7,2.22,1.81,4.32,1.96,6.7-4.35-.7-8.14-3.03-12.33-4.18-.99-.27-1.98-1.02-2.93.07-2.45-2.75-4.88-5.52-7.85-7.74-.15-.12-.35-.21-.45-.36-.73-1.13-.95-3.15-2.99-2.27-1.76.76-.83,2.57-1.06,3.92-.98,0-1.95,0-2.93,0-2.55-.6-5.09-2.47-7.64,0Z"/>
  <path class="cls-9" d="M237.56,599.21c2.34,1.74,3.21,4.85,5.93,6.26.7.36,1.27.79,2.12.72,6.44-.57,7.64.72,6.62,7.09-9.1-3.53-17.68-8.1-26.16-12.9-1.14-.65-2.13-2.1-3.79-1.19-3.62-2.36-7.39-4.51-10.79-7.15-2.09-1.63-.35-3.85.21-5.78,7.16,3.87,14.31,7.76,21.48,11.62,1.36.74,2.73,1.54,4.39,1.32Z"/>
  <path class="cls-12" d="M237.56,599.21c-1.66.21-3.02-.59-4.39-1.32-7.16-3.86-14.32-7.74-21.48-11.62.09-2.98.47-5.91,1.18-8.8,2.68.8,4.25,3.2,6.55,4.57,1.09.65,2.09,1.39,3.44,1.3,4.37,3.84,9.02,7.4,12.48,12.18.85,1.17,1.93,2.19,2.21,3.7Z"/>
  <path class="cls-1" d="M228.77,507.57c3.08,1.3,4.87,4.07,7.03,6.36,1.17,1.24-.54,1.77-1.3,1.63-4.77-.89-9.63-.67-14.41-1.35-2.39-.34-4.86-.53-7.23.16-2.19.64-3.56.25-3.86-2.25-.18-1.53-.99-2.96-.81-4.55,4.31-.78,8.57-.61,12.93-.17,2.47.25,5.09,1.62,7.64.17Z"/>
  <path class="cls-8" d="M222.28,599.2c1.67-.91,2.65.54,3.79,1.19,8.48,4.79,17.06,9.37,26.16,12.9-.34,2.22-.75,4.42-1.73,6.47-4.03-2.29-8.03-4.63-12.11-6.81-.68-.36-1.65-1.26-2.61-.23-4.16-4.84-8.99-9.01-13.5-13.51Z"/>
  <path class="cls-2" d="M235.8,539.28c.95-1.09,1.94-.34,2.93-.07,4.19,1.15,7.98,3.49,12.33,4.18,1.31,3.83,2.73,7.63,2.97,11.73-4.07-.65-7.55-3.29-11.76-3.5-1.53-4.44-4.19-8.29-6.47-12.34Z"/>
  <path class="cls-11" d="M212.88,532.83c2.55-2.47,5.09-.6,7.64,0-2.21,2.66-2.27,5.95-1.61,8.9,1.01,4.56-.17,8.7-1.49,12.82-.56,1.76-.86,4.14-3.36,4.71.42-8.85-.96-17.61-1.18-26.43Z"/>
  <path class="cls-2" d="M247.55,586.85c2.77-.12,5.39,1.74,8.23.61.07,5.15-.87,10.18-1.71,15.23-.31,1.87-1.2,1.92-2.6,1.65-4.81-.92-4.62-.96-4.1-5.84.41-3.85.14-7.76.18-11.65Z"/>
  <path class="cls-13" d="M228.77,507.57c-2.56,1.45-5.17.07-7.64-.17-4.36-.44-8.63-.6-12.93.17-.68-2.53-1.31-5.08-2.07-7.59-.51-1.67.35-2.01,1.61-1.75,7.7,1.54,15,4.03,21.04,9.34Z"/>
  <path class="cls-12" d="M214.06,559.26c2.49-.57,2.79-2.95,3.36-4.71,1.32-4.12,2.5-8.26,1.49-12.82-.65-2.96-.6-6.24,1.61-8.9.98,0,1.95,0,2.93,0,1.06,3.44,1.25,7.03,1.76,10.57-3.32.92-3.45,4.08-3.99,6.49-1.33,6-3.96,11.48-6.13,17.14-.28.72-.88.99-1.61,1.03-.14-2.96.94-5.84.57-8.81Z"/>
  <path class="cls-7" d="M235.78,612.7c.95-1.03,1.93-.13,2.61.23,4.09,2.18,8.08,4.53,12.11,6.81-.37,4.52-1.45,8.87-3.23,13.71-2.99-7.86-6.77-14.58-11.48-20.76Z"/>
  <path class="cls-6" d="M182.34,466.46c-3.98-.28-6.55-3.2-9.55-5.24-3.89-2.65-6.98-6.21-10.23-9.58-3.22-3.34-3.2-7.4-1.45-11.16,2.37-5.11,5.02-10.16,8.86-14.41,2.19-2.42,4.79-2.64,7.47-.67,5.79,4.27,9.33,10.23,11.86,16.71,1.86,4.76,4.06,9.58,3.61,14.95-4.7,1.81-7.92,5.29-10.58,9.39Z"/>
  <path class="cls-9" d="M170.6,472.92c.79.39,1.57.79,2.36,1.18.23,2.12,2.58,2.12,3.53,3.52-.02,1.13.18,2.34-1.17,2.94-1.12-.1-1.96-.77-2.87-1.33-6.9-4.26-12.32-10.34-18.7-15.24-4.48-3.44-8.98-6.85-14.86-7.52.8-4.95.82-5,5.51-3.35,5.16,1.81,9.15,5.39,13.21,8.86.94.8,1.54,2.08,3.01,2.14.98.79,1.96,1.57,2.94,2.36.17,1.39.95,2.17,2.34,2.34.39.39.79.79,1.18,1.18.94,1.25,1.76,2.65,3.52,2.93Z"/>
  <path class="cls-8" d="M138.88,456.47c5.88.68,10.38,4.08,14.86,7.52,6.38,4.9,11.8,10.98,18.7,15.24.91.57,1.75,1.23,2.87,1.33,0,1.21.11,2.43-.6,3.52-3.96-.77-7.05-3.14-10.01-5.64-5.33-4.51-10.36-9.35-16.41-12.98-2.98-1.79-6.09-2.97-9.43-3.71,0-1.76,0-3.52.01-5.28Z"/>
  <path class="cls-14" d="M176.48,477.62c-.95-1.4-3.29-1.4-3.53-3.52,1.7.2,2.78,2.09,4.69,1.75-.39.59-.77,1.18-1.16,1.77Z"/>
  <path class="cls-8" d="M121.88,421.81c2.37.48,3.75,3.14,6.43,2.95-.3.82-.55,1.67-.93,2.45-.54,1.12.2,3.35-2.09,3.01-2.4-.35-3.84-2.67-3.54-4.91.16-1.15.09-2.33.12-3.5Z"/>
  <path class="cls-16" d="M270.87,338.64c.36.22.96.44.5.93-.37.4-.79-.05-1.1-.36.2-.19.4-.38.6-.58Z"/>
  <path class="cls-16" d="M354.03,339.22c-.33.29-.75.77-1.12.36-.46-.5.15-.73.51-.95.2.2.4.39.61.59Z"/>
  <path class="cls-16" d="M467.23,279.11c.15.56-.38.64-.64.91.04-.42.03-.89.64-.91Z"/>
  <path class="cls-9" d="M498.31,428.29c-.05-1.12-.64-1.71-1.76-1.76-.78-2.54-1.57-5.08-2.35-7.62,2.58.19,4.98,1.53,7.64,1.18.39,2.09,1.62,4.27-.98,5.96-.39.25-.15,1.48-.2,2.25-.78,0-1.57,0-2.35,0Z"/>
  <path class="cls-4" d="M171.25,527.51c.01.8.03,1.61.04,2.41,0,1.16,0,2.32,0,3.48-4.01.57-7.31-1.06-10.65-3.06-3.67-2.19-7.13-4.68-10.71-6.98-.89-.57-1.7-1.34-2.9-1.07-2.95-5.73-4.13-12.02-5.79-18.15-.78-2.89-1.36-5.84-1.32-8.86,1.56-.87,3.2-1.16,5.01-1.27,6.23-.38,11.19,2.78,16.27,5.59,3.28,1.81,6.43,3.85,10.02,5.03.01.78.03,1.56.04,2.34,0,.2,0,.41,0,.61-.85,6.64-.8,13.29,0,19.93Z"/>
  <path class="cls-15" d="M171.22,504.63c-3.59-1.18-6.74-3.22-10.02-5.03-5.09-2.81-10.04-5.96-16.27-5.59-1.81.11-3.45.4-5.01,1.27-1.55-4.59-.94-9.42-1.54-14.12,3.27-.61,6.43-.99,9.64.67,8.15,4.22,15.69,9.6,24.36,12.83.16,2.76-1,5.43-.59,8.21,0,.2.01.4.02.6l-.59,1.16Z"/>
  <path class="cls-13" d="M172.38,494.66c-8.67-3.23-16.21-8.61-24.36-12.83-3.21-1.66-6.37-1.28-9.64-.67-.02-3.92-.04-7.84-.07-11.76,5.2-1.41,8.9,1.76,12.75,4.29,5.36,3.52,9.73,8.36,15.28,11.65,1.76,1.04,3.57,2.15,5.5,2.68,1.58.44,1.77,1.21,1.68,2.48-.18.8-.35,1.59-.53,2.39-.08.64.06,1.35-.62,1.77Z"/>
  <path class="cls-15" d="M147.03,522.29c1.2-.27,2.01.5,2.9,1.07,3.59,2.3,7.05,4.79,10.71,6.98,3.34,1.99,6.64,3.63,10.65,3.06.99,3.46.12,7.09.99,10.56-.54-.19-1.13-.29-1.62-.57-6.08-3.38-12.02-6.98-17.48-11.31-.8-.64-1.54-1.16-2.59-1-1.8-2.68-2.91-5.64-3.55-8.8Z"/>
  <path class="cls-13" d="M150.59,531.09c1.06-.16,1.79.37,2.59,1,5.46,4.33,11.4,7.92,17.48,11.31.49.28,1.08.38,1.62.57,1.15,1.85.49,3.93.7,5.89-2.49-.22-3.39-3.2-5.86-3.42-1.75-.16-2.92-1.23-4.28-2.19-2.72-1.91-5.29-4.17-8.66-4.97-1.31-2.68-2.94-5.22-3.59-8.19Z"/>
  <path class="cls-7" d="M154.18,539.28c3.37.81,5.94,3.06,8.66,4.97,1.36.96,2.53,2.03,4.28,2.19,2.47.22,3.37,3.2,5.86,3.42,1.06,1.24.35,2.73.58,4.08-.25,1.17-.76,1.41-1.34.24-.81-1.63-2.15-2.05-3.82-1.99-2.08.08-3.58-1.2-5.22-2.19-.97-.58-1.96-1.26-3.17-1.31-2.54-2.77-3.89-6.28-5.83-9.42Z"/>
  <path class="cls-16" d="M157.12,278.68c-.32-.17-.83-.16-.66-.75.46.04.55.4.66.75Z"/>
  <path class="cls-14" d="M170.6,472.92c-1.75-.28-2.57-1.68-3.52-2.93,2-.02,3.06,1.1,3.52,2.93Z"/>
  <path class="cls-14" d="M165.9,468.81c-1.39-.17-2.17-.95-2.34-2.34,1.4.16,2.18.95,2.34,2.34Z"/>
  <path class="cls-13" d="M453.08,505.81c-.91-2.25-.48-4.73-1.14-7.02,1.21.07,2.19-.27,3.18-1.1,4.57-3.87,9.82-6.71,15.31-8.96,4.76-1.95,9.77-3.43,14.94-1.11-1.2,14.67-5.3,28.57-11.02,42.08-5.13,12.1-11.91,23.2-19.92,33.54-1.5,1.94-2.92,4.33-5.41,5.45l-.08-.07c-.4-6,1.37-11.77,1.89-17.68.5-5.71,1.63-11.36,1.67-17.11,0-.59.03-1.18.52-1.62,5.52,2.26,9.59.44,12.62-4.43.35-.57.94-.99,1.36-1.53,5.52-7.07,10.85-14.28,14.43-22.57,1.88-4.37-.9-8.33-5.67-8.46-6.39-.18-11.59,2.74-16.72,6.06-2.11,1.37-3.41,3.76-5.95,4.53Z"/>
  <path class="cls-15" d="M453.08,505.81c2.54-.77,3.84-3.16,5.95-4.53,5.13-3.32,10.32-6.24,16.72-6.06,4.77.14,7.55,4.09,5.67,8.46-3.58,8.3-8.91,15.51-14.43,22.57-.42.54-1,.96-1.36,1.53-3.02,4.87-7.1,6.7-12.62,4.43.05-2.94.1-5.87.15-8.8.67.07,1.47-.06,2.01.25,3.08,1.83,6.03,1.01,8.48-.9,5.69-4.44,9.54-10.22,11.09-17.34.52-2.4-1.31-4.28-3.87-4.3-3.53-.03-6.55,1.36-9.56,3.12-3.15,1.84-4.85,5.27-8.14,6.86l-.1-5.3Z"/>
  <path class="cls-4" d="M453.19,511.11c3.29-1.59,4.99-5.02,8.14-6.86,3.01-1.76,6.03-3.16,9.56-3.12,2.56.02,4.39,1.9,3.87,4.3-1.55,7.12-5.41,12.9-11.09,17.34-2.46,1.92-5.4,2.74-8.48.9-.53-.32-1.33-.18-2.01-.25.28-4.1.71-8.2.01-12.3Z"/>
  <path class="cls-1" d="M485.38,487.62c-5.17-2.32-10.18-.84-14.94,1.11-5.49,2.24-10.73,5.09-15.31,8.96-.99.83-1.97,1.17-3.18,1.1-.01-.99-.02-1.97-.04-2.96,3.79-1.6,6.71-4.56,10.29-6.52,6.07-3.32,12.1-6.57,19.2-7.2,1.41-.12,2.66.53,4.01.2,0,1.77-.02,3.54-.03,5.31Z"/>
  <path class="cls-13" d="M449.03,568.69c-.09.25-.18.51-.27.76-.07-.06-.22-.15-.21-.16.13-.23.27-.45.41-.67,0,0,.08.07.08.07Z"/>
  <path class="cls-16" d="M226.66,244.16c-.22.05-.45.1-.67.15.1-.18.2-.36.3-.54.13.12.25.25.37.39Z"/>
  <path class="cls-16" d="M396.29,242.55c.36.26.58.71.26.97-.45.36-.54-.27-.77-.49.17-.16.34-.31.5-.47Z"/>
  <path class="cls-16" d="M150.6,289.68c.53-.03.72.25.64.74-.29-.19-.84-.14-.64-.74Z"/>
  <path class="cls-8" d="M171.24,507.58c0-.2,0-.41,0-.61.07.14.15.28.19.44,0,.04-.13.12-.2.17Z"/>
  <path class="cls-8" d="M171.81,503.47c0-.2-.01-.4-.02-.6.4.19.43.39.02.6Z"/>
</svg>